<?xml version="1.0" encoding="utf-8"?>
<!-- Generator: Adobe Illustrator 25.4.1, SVG Export Plug-In . SVG Version: 6.00 Build 0)  -->
<svg version="1.1" id="Capa_1" xmlns="http://www.w3.org/2000/svg" xmlns:xlink="http://www.w3.org/1999/xlink" x="0px" y="0px"
	 viewBox="0 0 100 100" style="enable-background:new 0 0 100 100;" xml:space="preserve">
<style type="text/css">
	.st0{fill:#242C36;}
	.st1{fill:#A6D7ED;}
	.st2{fill:#FFFFFF;}
</style>
<g>
	<circle class="st0" cx="50" cy="50" r="50"/>
	<g>
		<path d="M92.8,55.9l-1.1-2.6l-8.5-20.7c-0.4-0.9-1.4-1.4-2.3-1l-7.7,3c-0.9,0.4-1.4,1.4-1,2.4l0.5,1.2l-7.2,2.1l-11.7-2.8
			c-1.8-0.4-3.6-0.1-5.1,0.8l-4.2-1c-1.7-0.4-3.4-0.1-5,0.8l-6,3.7l-4.8-2.3l0.8-1.6c0.4-0.9,0.1-2-0.8-2.4l-7.5-3.6
			c-0.9-0.4-2-0.1-2.4,0.8L8.5,52.6L7.3,55c-0.5,0.9-0.1,2,0.8,2.4l7.7,3.9c0.9,0.5,2,0.1,2.4-0.8l0.6-1.3l6.6,4l-0.7,0.9
			c-0.9,1.2-0.6,2.9,0.6,3.8l0,0c1.2,0.8,2.8,0.6,3.7-0.6l-0.2,0.2c-0.9,1.3-0.7,3.1,0.6,4.1c1.3,0.9,3.1,0.7,4-0.6l0.5-0.7l1.3-1.8
			c-0.1,0.1-0.1,0.3-0.2,0.4L34,70.4l-0.8,1.1c-1,1.3-0.7,3.1,0.5,4.2c0.6,0.5,1.2,0.7,1.9,0.7c1,0,1.9-0.5,2.5-1.3l0.5-0.8l0,0
			c-1,1.3-0.6,3.2,0.8,4.1c0.5,0.3,1,0.5,1.6,0.5c0.9,0,1.8-0.4,2.3-1.2l1.7-2.3c0.1-0.1,0.1-0.2,0.2-0.2l5.1,3.2
			c1.4,0.9,3.3,0.6,4.4-0.7c0.5-0.6,0.8-1.4,0.8-2.2c0-1-0.4-2-1.3-2.7l2.6,2.1c1.4,1.2,3.6,0.9,4.7-0.6c0.5-0.6,0.7-1.3,0.7-2
			c0-1-0.5-2-1.4-2.7l2.6,1.9c1.4,1,3.4,0.8,4.6-0.5c0.6-0.6,0.8-1.4,0.8-2.2c0-1-0.4-2-1.3-2.6l0.7,0.6c0.8,0.6,1.7,1,2.7,1
			c1.3,0,2.7-0.6,3.5-1.8c1-1.4,1-3.3,0.1-4.8l6.2-1.7l0.5,1.3c0.4,0.9,1.4,1.4,2.4,1l8-3.3C92.7,57.9,93.2,56.8,92.8,55.9z"/>
		<path class="st1" d="M81,59.3l0.5,1.3c0.4,0.9,1.4,1.4,2.4,1l8-3.3c0.9-0.4,1.4-1.4,1-2.4l-1.1-2.6l-8.5-20.7
			c-0.4-0.9-1.4-1.4-2.3-1l-7.7,3c-0.9,0.4-1.4,1.4-1,2.4l0.5,1.2L81,59.3z"/>
		<path class="st1" d="M28.6,39.5l0.8-1.6c0.4-0.9,0.1-2-0.8-2.4l-7.5-3.6c-0.9-0.4-2-0.1-2.4,0.8L8.5,52.6L7.3,55
			c-0.5,0.9-0.1,2,0.8,2.4l7.7,3.9c0.9,0.5,2,0.1,2.4-0.8l0.6-1.3L28.6,39.5z"/>
		<g>
			<g>
				<g>
					<path class="st2" d="M16.6,62c-0.3,0-0.7-0.1-1-0.2l-7.7-3.9c-0.5-0.3-0.9-0.7-1.1-1.3c-0.2-0.6-0.1-1.2,0.1-1.7l11.4-22.4
						c0.5-1.1,1.9-1.5,3-1l7.5,3.6c0.5,0.3,0.9,0.7,1.1,1.3c0.2,0.6,0.2,1.2-0.1,1.7L18.6,60.7c-0.3,0.5-0.7,0.9-1.3,1.1
						C17,61.9,16.8,62,16.6,62z M20.3,32.1c-0.5,0-1,0.3-1.2,0.8L11.3,48l0,0l-3.7,7.2c-0.2,0.3-0.2,0.7-0.1,1.1
						c0.1,0.4,0.4,0.6,0.7,0.8l7.7,3.9c0.3,0.2,0.7,0.2,1.1,0.1c0.4-0.1,0.6-0.4,0.8-0.7L29,37.7c0.2-0.3,0.2-0.7,0.1-1.1
						c-0.1-0.4-0.4-0.6-0.7-0.8l-7.5-3.6C20.7,32.1,20.5,32.1,20.3,32.1z M10.9,47.8L10.9,47.8L10.9,47.8z"/>
					<path class="st2" d="M14.7,55.9c-1.1,0-2.1-0.9-2.1-2.1c0-0.2,0.2-0.4,0.4-0.4c0.2,0,0.4,0.2,0.4,0.4c0,0.7,0.6,1.2,1.2,1.2
						c0.7,0,1.2-0.6,1.2-1.2c0-0.2,0.2-0.4,0.4-0.4s0.4,0.2,0.4,0.4C16.8,54.9,15.9,55.9,14.7,55.9z"/>
					<path class="st2" d="M83.1,62.1c-0.3,0-0.6-0.1-0.9-0.2c-0.6-0.2-1-0.7-1.2-1.2l-9.3-23.5c-0.2-0.6-0.2-1.2,0-1.7
						c0.2-0.5,0.7-1,1.2-1.2l7.7-3c1.1-0.4,2.4,0.1,2.9,1.2l6.5,15.8l0,0l3.1,7.5c0.2,0.6,0.2,1.2,0,1.7c-0.2,0.6-0.7,1-1.2,1.2
						l-8,3.3C83.7,62,83.4,62.1,83.1,62.1z M81.5,31.9c-0.2,0-0.3,0-0.5,0.1l-7.7,3c-0.3,0.1-0.6,0.4-0.8,0.7
						c-0.1,0.3-0.2,0.7,0,1.1l9.3,23.5c0.1,0.3,0.4,0.6,0.7,0.8c0.3,0.1,0.7,0.1,1.1,0l8-3.3c0.3-0.1,0.6-0.4,0.8-0.8
						c0.1-0.3,0.1-0.7,0-1.1l-9.6-23.2C82.6,32.3,82.1,31.9,81.5,31.9z"/>
					<path class="st2" d="M85.5,56.1c-0.1,0-0.1,0-0.2,0c-0.6,0-1.1-0.3-1.4-0.7c-0.4-0.4-0.5-1-0.5-1.5c0-0.2,0.2-0.4,0.5-0.4
						c0.2,0,0.4,0.2,0.4,0.5c0,0.3,0.1,0.6,0.3,0.9s0.5,0.4,0.8,0.4c0.3,0,0.6-0.1,0.9-0.3c0.3-0.2,0.4-0.5,0.4-0.8
						c0-0.2,0.2-0.4,0.5-0.4c0.2,0,0.4,0.2,0.4,0.5C87.4,55.3,86.5,56.1,85.5,56.1z"/>
					<path class="st2" d="M33.4,42.2c-0.1,0-0.1,0-0.2,0l-4.8-2.3c-0.2-0.1-0.3-0.4-0.2-0.6c0.1-0.2,0.4-0.3,0.6-0.2l4.6,2.2
						l5.8-3.5c1.6-1,3.5-1.3,5.3-0.9l4.2,1c0.2,0.1,0.4,0.3,0.3,0.5c-0.1,0.2-0.3,0.4-0.5,0.3l-4.2-1c-1.6-0.3-3.2-0.1-4.6,0.8
						l-6,3.7C33.5,42.2,33.5,42.2,33.4,42.2z"/>
					<path class="st2" d="M44.7,51.6c-1.7,0-3.4-0.6-4.7-1.8c-0.5-0.4-0.7-1-0.8-1.6c0-0.6,0.2-1.2,0.6-1.6l6.9-7.4
						c1.8-1.9,4.4-2.7,6.9-2.1l11.6,2.8l6.5-1.9c0.2-0.1,0.5,0.1,0.5,0.3c0.1,0.2-0.1,0.5-0.3,0.5l-6.6,1.9c-0.1,0-0.1,0-0.2,0
						l-11.7-2.8c-2.2-0.5-4.6,0.2-6.1,1.9l-6.9,7.4c-0.3,0.3-0.4,0.6-0.4,1c0,0.4,0.2,0.7,0.5,1c2.2,2,5.6,2.1,7.9,0.3l5.6-4.2
						c0.2-0.1,0.4-0.1,0.6,0.1c0.1,0.2,0.1,0.4-0.1,0.6L49,50.1C47.7,51.1,46.2,51.6,44.7,51.6z"/>
					<path class="st2" d="M71.1,68c-1.1,0-2.1-0.4-2.9-1l-7-5.7c-0.2-0.1-0.2-0.4-0.1-0.6c0.1-0.2,0.4-0.2,0.6-0.1l7,5.7
						c0.8,0.7,1.9,1,3,0.8c1.1-0.1,2-0.7,2.6-1.6c1.2-1.6,0.9-3.9-0.6-5.2L57.5,46.5c-0.2-0.2-0.2-0.4,0-0.6c0.2-0.2,0.4-0.2,0.6,0
						l16.1,13.8C76,61.3,76.4,64,75,66c-0.8,1.1-1.9,1.8-3.2,1.9C71.6,67.9,71.3,68,71.1,68z"/>
					<path class="st2" d="M65.5,72.5c-0.8,0-1.6-0.2-2.3-0.7l-8-5.8c-0.2-0.1-0.2-0.4-0.1-0.6c0.1-0.2,0.4-0.2,0.6-0.1l8,5.8
						c1.3,0.9,3,0.7,4-0.5c0.5-0.6,0.8-1.4,0.7-2.2c-0.1-0.8-0.5-1.5-1.1-2.1l-4.7-3.8c-0.2-0.1-0.2-0.4-0.1-0.6
						c0.1-0.2,0.4-0.2,0.6-0.1l4.7,3.8c0.8,0.7,1.3,1.6,1.4,2.6c0.1,1-0.2,2.1-0.9,2.8C67.7,72,66.6,72.5,65.5,72.5z"/>
					<path class="st2" d="M59,75.9c-0.8,0-1.7-0.3-2.3-0.8l-6.5-5.3c-0.2-0.1-0.2-0.4-0.1-0.6c0.1-0.2,0.4-0.2,0.6-0.1l6.5,5.3
						c0.6,0.5,1.4,0.7,2.2,0.6c0.8-0.1,1.5-0.5,1.9-1.1c0.5-0.6,0.7-1.4,0.6-2.2c-0.1-0.8-0.5-1.5-1.2-1.9l-4.1-3
						c-0.2-0.1-0.2-0.4-0.1-0.6c0.1-0.2,0.4-0.2,0.6-0.1l4.1,3c0.8,0.6,1.3,1.5,1.5,2.5s-0.1,2-0.7,2.8c-0.6,0.8-1.5,1.3-2.5,1.4
						C59.3,75.9,59.1,75.9,59,75.9z"/>
					<path class="st2" d="M52.2,79.2c-0.7,0-1.4-0.2-2-0.6l-2.3-1.4l-2.5-1.6c-0.2-0.1-0.3-0.4-0.1-0.6c0.1-0.2,0.4-0.3,0.6-0.1
						l2.5,1.6l2.3,1.4c1.3,0.8,2.9,0.5,3.9-0.7c0.5-0.6,0.8-1.4,0.7-2.2c-0.1-0.8-0.5-1.5-1.1-2l-2.4-2c-0.2-0.1-0.2-0.4-0.1-0.6
						c0.1-0.2,0.4-0.2,0.6-0.1l2.4,2c0.8,0.7,1.3,1.6,1.4,2.6c0.1,1-0.2,2-0.9,2.8C54.4,78.7,53.3,79.2,52.2,79.2z"/>
					<path class="st2" d="M25.4,63.6c-0.1,0-0.1,0-0.2-0.1l-6.6-4c-0.2-0.1-0.3-0.4-0.1-0.6c0.1-0.2,0.4-0.3,0.6-0.1l6.6,4
						c0.2,0.1,0.3,0.4,0.1,0.6C25.7,63.6,25.6,63.6,25.4,63.6z"/>
					<path class="st2" d="M74.8,61.4c-0.2,0-0.4-0.1-0.4-0.3c-0.1-0.2,0.1-0.5,0.3-0.5l6.2-1.7c0.2-0.1,0.5,0.1,0.5,0.3
						c0.1,0.2-0.1,0.5-0.3,0.5l-6.2,1.7C74.8,61.4,74.8,61.4,74.8,61.4z"/>
					<path class="st2" d="M41.1,79.2c-0.6,0-1.2-0.2-1.8-0.5c-0.8-0.5-1.3-1.3-1.5-2.2c-0.2-0.9,0-1.8,0.6-2.6l1.7-2.3
						c0.5-0.7,1.3-1.2,2.2-1.3c0.9-0.1,1.8,0.1,2.5,0.7l0,0c0,0,0,0,0,0c1.4,1.1,1.6,3.1,0.6,4.5l-1.7,2.3
						C43.1,78.7,42.1,79.2,41.1,79.2z M42.8,71.1c-0.1,0-0.2,0-0.3,0c-0.7,0.1-1.3,0.4-1.7,1l-1.7,2.3c-0.4,0.6-0.5,1.2-0.4,1.9
						c0.1,0.7,0.5,1.2,1.1,1.6c1.1,0.7,2.6,0.4,3.3-0.6l1.7-2.3c0.8-1.1,0.6-2.5-0.4-3.4l0,0C43.9,71.3,43.3,71.1,42.8,71.1z"/>
					<path class="st2" d="M31.2,72.6c-0.7,0-1.4-0.2-1.9-0.6l0,0c-0.7-0.5-1.2-1.3-1.3-2.2c-0.1-0.9,0.1-1.8,0.6-2.5l1.6-2.2
						c1-1.4,3-1.8,4.5-0.8l0,0c0.8,0.5,1.3,1.3,1.5,2.2c0.2,0.9-0.1,1.8-0.6,2.6l-1.6,2.1C33.2,72.2,32.2,72.6,31.2,72.6z
						 M32.8,64.7c-0.8,0-1.5,0.4-2,1l-1.6,2.2c-0.4,0.5-0.6,1.2-0.4,1.8c0.1,0.7,0.5,1.2,1,1.6l0,0c1.1,0.8,2.6,0.6,3.4-0.5l1.6-2.1
						c0.4-0.6,0.6-1.2,0.5-1.9c-0.1-0.7-0.5-1.3-1.1-1.6l0,0C33.7,64.8,33.3,64.7,32.8,64.7z"/>
					<path class="st2" d="M26.9,68.9c-0.6,0-1.2-0.2-1.8-0.6l0,0c-0.7-0.5-1.1-1.2-1.3-2.1c-0.1-0.8,0.1-1.7,0.6-2.3l1.1-1.5
						c1-1.3,2.7-1.6,4.1-0.8c0.7,0.5,1.2,1.2,1.4,2c0.2,0.8,0,1.7-0.5,2.4l-1.1,1.5C28.8,68.4,27.8,68.9,26.9,68.9z M28,62
						c-0.7,0-1.4,0.3-1.8,0.9l-1.1,1.5c-0.4,0.5-0.5,1.1-0.4,1.7s0.4,1.1,0.9,1.5c0,0,0,0,0,0l0,0c1,0.7,2.4,0.5,3.1-0.5l1.1-1.5
						c0.4-0.5,0.5-1.1,0.4-1.8c-0.1-0.6-0.5-1.2-1-1.5C28.8,62.1,28.4,62,28,62z"/>
					<path class="st2" d="M35.7,76.7c-0.8,0-1.6-0.3-2.2-0.8c-1.4-1.2-1.7-3.3-0.6-4.7l2.5-3.4c0.5-0.7,1.4-1.2,2.3-1.4
						c0.9-0.1,1.8,0.1,2.6,0.7c0,0,0,0,0,0c1.5,1.1,1.8,3.2,0.7,4.7l-2.4,3.4c-0.5,0.8-1.4,1.3-2.4,1.5C36,76.7,35.9,76.7,35.7,76.7
						z M38.1,67.3c-0.1,0-0.3,0-0.4,0c-0.7,0.1-1.3,0.5-1.7,1l-2.5,3.4c-0.8,1.1-0.6,2.7,0.5,3.6c0.6,0.5,1.3,0.7,2,0.6
						c0.7-0.1,1.4-0.5,1.8-1.1l2.4-3.4c0.8-1.1,0.5-2.7-0.6-3.5C39.2,67.5,38.7,67.3,38.1,67.3z"/>
				</g>
				<path class="st2" d="M50,29.6c-0.2,0-0.4-0.2-0.4-0.4v-8c0-0.2,0.2-0.4,0.4-0.4c0.2,0,0.4,0.2,0.4,0.4v8
					C50.4,29.4,50.2,29.6,50,29.6z"/>
				<path class="st2" d="M43.2,29.6c-0.1,0-0.2,0-0.3-0.1l-5.7-5.7c-0.2-0.2-0.2-0.4,0-0.6c0.2-0.2,0.4-0.2,0.6,0l5.7,5.7
					c0.2,0.2,0.2,0.4,0,0.6C43.4,29.6,43.3,29.6,43.2,29.6z"/>
				<path class="st2" d="M56.8,29.6c-0.1,0-0.2,0-0.3-0.1c-0.2-0.2-0.2-0.4,0-0.6l5.7-5.7c0.2-0.2,0.4-0.2,0.6,0
					c0.2,0.2,0.2,0.4,0,0.6l-5.7,5.7C57,29.6,56.9,29.6,56.8,29.6z"/>
			</g>
		</g>
	</g>
</g>
</svg>
