<?xml version="1.0" encoding="utf-8"?>
<!-- Generator: Adobe Illustrator 25.4.1, SVG Export Plug-In . SVG Version: 6.00 Build 0)  -->
<svg version="1.1" id="Capa_1" xmlns="http://www.w3.org/2000/svg" xmlns:xlink="http://www.w3.org/1999/xlink" x="0px" y="0px"
	 viewBox="0 0 176 176" style="enable-background:new 0 0 176 176;" xml:space="preserve">
<style type="text/css">
	.st0{fill:#2B73FF;}
	.st1{fill:#FFFFFF;}
</style>
<g>
	<circle class="st0" cx="88" cy="88" r="88"/>
	<g>
		<path class="st1" d="M64.3,111.6c3.8,0,7-2.8,7.6-6.5l3.8-24.6c0.6-4.2-2.3-8.1-6.4-8.7c-0.4-0.1-0.8-0.1-1.2-0.1H54.7v-8.7
			c0-5.7-4.7-10.4-10.4-10.4h-1.4L31.9,77.1h-6.8c-4.2,0-7.7,3.4-7.7,7.7v19.2c0,4.2,3.4,7.7,7.7,7.7L64.3,111.6
			C64.2,111.6,64.3,111.6,64.3,111.6z M31.1,107.2h-6c-1.8,0-3.3-1.5-3.3-3.3V84.8c0-1.8,1.5-3.3,3.3-3.3h6V107.2z M35.6,79.8
			L45.7,57c2.7,0.6,4.6,3,4.6,5.9V76H68c0.2,0,0.4,0,0.5,0c1.8,0.3,3,1.9,2.7,3.7l-3.8,24.6c-0.2,1.6-1.7,2.8-3.3,2.8H35.6V79.8z"/>
		<path class="st1" d="M63.3,143.8c-13.5-5.8-24.3-16.2-30.6-29.5c-0.4-0.9-1.5-1.4-2.5-1.2c-1,0.2-1.7,1.1-1.7,2.1v15.3
			c0,1.2,1,2.2,2.2,2.2s2.2-1,2.2-2.2v-6.8c6.9,10.7,16.8,19.1,28.6,24.1c0.3,0.1,0.6,0.2,0.9,0.2c0.9,0,1.7-0.5,2-1.3
			C65,145.6,64.4,144.3,63.3,143.8z"/>
		<path class="st1" d="M29.8,64.5c0.3,0.1,0.6,0.2,0.9,0.2c0.8,0,1.6-0.5,2-1.3C39,50.2,49.9,39.7,63.3,34c1-0.4,1.5-1.4,1.3-2.5
			c-0.2-1-1.1-1.8-2.2-1.8H46.6c-1.2,0-2.2,1-2.2,2.2c0,1.2,1,2.2,2.2,2.2h6.8c-10.7,6.5-19.2,16-24.6,27.4
			C28.2,62.7,28.7,64,29.8,64.5z"/>
		<path class="st1" d="M114.2,35.9c11.6,6,21,15.8,26.6,27.6c0.4,0.8,1.2,1.3,2,1.3c0.2,0,0.3,0,0.5-0.1c1-0.2,1.7-1.1,1.7-2.1V47.2
			c0-1.2-1-2.2-2.2-2.2s-2.2,1-2.2,2.2v6.8c-6-9.3-14.5-17-24.4-22.1c-1.1-0.6-2.4-0.1-3,0.9C112.7,34,113.1,35.3,114.2,35.9z"/>
		<path class="st1" d="M143.7,113.3c-1.1-0.5-2.4,0-2.9,1.1c-5.6,11.8-15,21.6-26.6,27.6c-0.9,0.5-1.4,1.5-1.1,2.5
			c0.2,1,1.1,1.7,2.1,1.7H129c1.2,0,2.2-1,2.2-2.2c0-1.2-1-2.2-2.2-2.2h-5.9c9.3-6.4,16.8-15.2,21.6-25.5
			C145.3,115.1,144.8,113.8,143.7,113.3z"/>
		<path class="st1" d="M87.4,14c-11,0-19.9,8.9-19.9,19.9s8.9,19.9,19.9,19.9s19.9-8.9,19.9-19.9S98.4,14,87.4,14z M87.4,49.4
			c-8.6,0-15.5-7-15.5-15.5s7-15.5,15.5-15.5s15.5,7,15.5,15.5S96,49.4,87.4,49.4z"/>
		<path class="st1" d="M138.6,69c-11,0-19.9,8.9-19.9,19.9c0,11,8.9,19.9,19.9,19.9s19.9-8.9,19.9-19.9
			C158.5,77.9,149.6,69,138.6,69z M138.6,104.4c-8.6,0-15.5-7-15.5-15.5c0-8.6,7-15.5,15.5-15.5c8.6,0,15.5,7,15.5,15.5
			C154.1,97.5,147.2,104.4,138.6,104.4z"/>
		<path class="st1" d="M87.4,122.2c-11,0-19.9,8.9-19.9,19.9c0,5.3,2.1,10.2,5.5,13.8c0.1,0.1,0.1,0.2,0.2,0.2
			c3.6,3.7,8.6,5.9,14.2,5.9c5.5,0,10.5-2.3,14.2-5.9c0.1-0.1,0.2-0.2,0.2-0.2c3.4-3.6,5.5-8.4,5.5-13.8
			C107.3,131.1,98.4,122.2,87.4,122.2z M87.4,126.6c8.6,0,15.5,7,15.5,15.5c0,3-0.9,5.9-2.4,8.3c-1.5-2.3-3.7-4.2-6.1-5.4
			c2-1.9,3.2-4.5,3.2-7.4c0-5.6-4.6-10.2-10.2-10.2c-5.6,0-10.2,4.6-10.2,10.2c0,2.9,1.2,5.5,3.2,7.4c-2.5,1.2-4.6,3.1-6.1,5.4
			c-1.5-2.4-2.4-5.2-2.4-8.3C71.9,133.5,78.9,126.6,87.4,126.6z M81.6,137.6c0-3.2,2.6-5.8,5.8-5.8c3.2,0,5.8,2.6,5.8,5.8
			s-2.6,5.8-5.8,5.8C84.2,143.4,81.6,140.8,81.6,137.6z M77.4,153.9c1.9-3.7,5.8-6.1,10.1-6.1c4.3,0,8.1,2.4,10.1,6.1
			c-2.7,2.3-6.2,3.7-10.1,3.7C83.6,157.6,80.1,156.2,77.4,153.9z"/>
		<path class="st1" d="M130.4,86.8c-1.2,0-2.2,1-2.2,2.2v9c0,1.2,1,2.2,2.2,2.2c1.2,0,2.2-1,2.2-2.2v-9
			C132.6,87.8,131.6,86.8,130.4,86.8z"/>
		<path class="st1" d="M146.8,81.6c-1.2,0-2.2,1-2.2,2.2v14.2c0,1.2,1,2.2,2.2,2.2c1.2,0,2.2-1,2.2-2.2V83.8
			C149,82.6,148.1,81.6,146.8,81.6z"/>
		<path class="st1" d="M138.6,76.7c-1.2,0-2.2,1-2.2,2.2v19.1c0,1.2,1,2.2,2.2,2.2c1.2,0,2.2-1,2.2-2.2V79
			C140.8,77.7,139.8,76.7,138.6,76.7z"/>
	</g>
</g>
</svg>
