<?xml version="1.0" encoding="utf-8"?>
<!-- Generator: Adobe Illustrator 25.4.1, SVG Export Plug-In . SVG Version: 6.00 Build 0)  -->
<svg version="1.1" id="Capa_1" xmlns="http://www.w3.org/2000/svg" xmlns:xlink="http://www.w3.org/1999/xlink" x="0px" y="0px"
	 viewBox="0 0 176 176" style="enable-background:new 0 0 176 176;" xml:space="preserve">
<style type="text/css">
	.st0{fill:#2B73FF;}
	.st1{fill:#FFFFFF;}
</style>
<g>
	<circle class="st0" cx="88" cy="88" r="88"/>
	<g>
		<path class="st1" d="M78.2,138.9v-28.5l28.4-39.5c2.9-0.6,5-3.1,5-6.1c0-3.4-2.8-6.2-6.2-6.2H101v-7.8c0-4.4-2.4-8.3-5.9-10.4
			c1.6-1.6,2.6-3.8,2.6-6.3c0-4.9-4-8.9-8.9-8.9c-4.9,0-8.9,4-8.9,8.9c0,2.5,1,4.7,2.6,6.3c-1.5,0.9-2.7,2.1-3.7,3.5
			c-1-1.4-2.2-2.6-3.7-3.5c1.6-1.6,2.6-3.8,2.6-6.3c0-4.9-4-8.9-8.9-8.9s-8.9,4-8.9,8.9c0,2.5,1,4.7,2.6,6.3
			c-1.5,0.9-2.7,2.1-3.7,3.5c-1-1.4-2.2-2.6-3.7-3.5c1.6-1.6,2.6-3.8,2.6-6.3c0-4.9-4-8.9-8.9-8.9c-4.9,0-8.9,4-8.9,8.9
			c0,2.5,1,4.7,2.6,6.3c-3.5,2.1-5.9,6-5.9,10.4v7.8H32c-3.4,0-6.2,2.8-6.2,6.2c0,3,2.2,5.6,5,6.1l28.4,39.5v38.4
			c0,0.8,0.5,1.6,1.2,1.9c0.3,0.2,0.7,0.3,1,0.3c0.4,0,0.9-0.1,1.2-0.4l14.6-9.9c0,0,0.1,0,0.1-0.1c0.1-0.1,0.2-0.1,0.2-0.2
			c0.1-0.1,0.1-0.1,0.2-0.2c0-0.1,0.1-0.1,0.1-0.1c0-0.1,0.1-0.1,0.1-0.2c0-0.1,0.1-0.1,0.1-0.2c0-0.1,0-0.1,0.1-0.2
			c0-0.1,0-0.1,0.1-0.2C78.2,139.2,78.2,139,78.2,138.9C78.2,138.9,78.2,138.9,78.2,138.9L78.2,138.9
			C78.2,138.9,78.2,138.9,78.2,138.9z M84.2,34c0-2.5,2-4.5,4.5-4.5s4.5,2,4.5,4.5s-2,4.5-4.5,4.5S84.2,36.4,84.2,34z M88.7,42.9
			c4.3,0,7.8,3.5,7.8,7.8v7.8h-7.6V49c0-1.2-1-2.2-2.2-2.2c-1.2,0-2.2,1-2.2,2.2v9.5h-3.6v-7.8C80.9,46.4,84.4,42.9,88.7,42.9z
			 M64.2,34c0-2.5,2-4.5,4.5-4.5s4.5,2,4.5,4.5s-2,4.5-4.5,4.5S64.2,36.4,64.2,34z M68.7,42.9c4.3,0,7.8,3.5,7.8,7.8v7.8h-7.6V49
			c0-1.2-1-2.2-2.2-2.2s-2.2,1-2.2,2.2v9.5h-3.6v-7.8C60.9,46.4,64.4,42.9,68.7,42.9z M44.1,34c0-2.5,2-4.5,4.5-4.5
			c2.5,0,4.5,2,4.5,4.5s-2,4.5-4.5,4.5C46.2,38.5,44.1,36.4,44.1,34z M40.8,50.7c0-4.3,3.5-7.8,7.8-7.8s7.8,3.5,7.8,7.8v7.8h-7.6V49
			c0-1.2-1-2.2-2.2-2.2s-2.2,1-2.2,2.2v9.5h-3.6V50.7z M32,62.9h4.5h20h4.4h15.6h4.4h20h4.5c1,0,1.8,0.8,1.8,1.8
			c0,1-0.8,1.8-1.8,1.8H32c-1,0-1.8-0.8-1.8-1.8C30.1,63.7,31,62.9,32,62.9z M63.2,108.4L36.3,71h64.9l-2.7,3.8H76.9
			c-1.2,0-2.2,1-2.2,2.2s1,2.2,2.2,2.2h18.3L92.5,83H73.2C72,83,71,84,71,85.2s1,2.2,2.2,2.2h16.2l-2.7,3.8H69.4
			c-1.2,0-2.2,1-2.2,2.2s1,2.2,2.2,2.2h14l-2.7,3.8H65.2c-1.2,0-2.2,1-2.2,2.2s1,2.2,2.2,2.2h12.3l-3.8,5.2v28.7l-10.2,6.9v-34.9
			C63.6,109.2,63.4,108.8,63.2,108.4z"/>
		<path class="st1" d="M150.3,96.8c0-11.8-9-21.5-20.5-22.6V43l6.9,6.6c0.4,0.4,1,0.6,1.5,0.6c0.6,0,1.2-0.2,1.6-0.7
			c0.8-0.9,0.8-2.3-0.1-3.1l-10.6-10.1c0,0-0.1-0.1-0.1-0.1c-0.1,0-0.1-0.1-0.2-0.1c-0.1,0-0.1-0.1-0.2-0.1c-0.1,0-0.1-0.1-0.2-0.1
			c-0.1,0-0.2-0.1-0.2-0.1c-0.1,0-0.1,0-0.2,0c-0.3-0.1-0.6-0.1-0.9,0c-0.1,0-0.1,0-0.2,0c-0.1,0-0.2,0-0.2,0.1
			c-0.1,0-0.1,0.1-0.2,0.1c-0.1,0-0.1,0.1-0.2,0.1c-0.1,0-0.1,0.1-0.2,0.1c0,0-0.1,0.1-0.1,0.1l-10.6,10.1c-0.9,0.8-0.9,2.2-0.1,3.1
			c0.8,0.9,2.2,0.9,3.1,0.1l6.9-6.6v31.2c-11.5,1.1-20.5,10.8-20.5,22.6s9,21.5,20.5,22.6v17.3c0,2.2-1.8,3.9-3.9,3.9H81.9
			c-1.2,0-2.2,1-2.2,2.2c0,1.2,1,2.2,2.2,2.2h39.6c4.6,0,8.3-3.7,8.3-8.3v-17.3C141.3,118.3,150.3,108.5,150.3,96.8z M127.5,115.1
			c-10.1,0-18.3-8.2-18.3-18.3s8.2-18.3,18.3-18.3s18.3,8.2,18.3,18.3S137.7,115.1,127.5,115.1z"/>
		<path class="st1" d="M130.2,94.6h-0.4v-3h3.1c1.2,0,2.2-1,2.2-2.2s-1-2.2-2.2-2.2h-3.1v-2c0-1.2-1-2.2-2.2-2.2
			c-1.2,0-2.2,1-2.2,2.2v2h-0.4c-3.2,0-5.9,2.6-5.9,5.9c0,3.2,2.6,5.9,5.9,5.9h0.4v3h-4.1c-1.2,0-2.2,1-2.2,2.2c0,1.2,1,2.2,2.2,2.2
			h4.1v2c0,1.2,1,2.2,2.2,2.2c1.2,0,2.2-1,2.2-2.2v-2h0.4c3.2,0,5.9-2.6,5.9-5.9C136.1,97.2,133.4,94.6,130.2,94.6z M124.9,94.6
			c-0.8,0-1.5-0.7-1.5-1.5c0-0.8,0.7-1.5,1.5-1.5h0.4v3H124.9z M130.2,101.9h-0.4v-3h0.4c0.8,0,1.5,0.7,1.5,1.5
			C131.7,101.3,131,101.9,130.2,101.9z"/>
	</g>
</g>
</svg>
