<?xml version="1.0" encoding="utf-8"?>
<!-- Generator: Adobe Illustrator 25.4.1, SVG Export Plug-In . SVG Version: 6.00 Build 0)  -->
<svg version="1.1" id="Masterbrand" xmlns="http://www.w3.org/2000/svg" xmlns:xlink="http://www.w3.org/1999/xlink" x="0px"
	 y="0px" viewBox="0 0 1324.9 424" style="enable-background:new 0 0 1324.9 424;" xml:space="preserve">
<style type="text/css">
	.st0{fill:#FFFFFF;}
	.st1{fill:#2B73FF;}
</style>
<g>
	<path class="st0" d="M436.1,247.2c-2.3,14-9.6,25.6-21.7,35c-12.1,9.4-26.2,14.1-42.2,14.1c-18.9,0-35.1-6.3-48.4-18.8
		c-13.4-12.5-20-27.5-20-45.1c0-17.4,6.7-32.3,20.1-44.8c13.4-12.5,29.5-18.7,48.3-18.7c16,0,30,4.7,42,14
		c12.1,9.3,19.3,20.8,21.8,34.5h-34.5c-2.3-5.6-6.2-10.2-11.6-13.7c-5.4-3.5-11.6-5.2-18.5-5.2c-9.4,0-17.4,3.3-23.9,9.9
		c-6.6,6.6-9.9,14.6-9.9,24c0,9.2,3.3,17.2,9.9,23.8c6.6,6.7,14.6,10,23.9,10c6.9,0,13-1.7,18.3-5.2c5.3-3.4,9.2-8.1,11.7-13.8
		H436.1z"/>
	<path class="st0" d="M563.4,172v121h-30.1l-1.9-20.2h-0.5c-3.6,7.2-8.9,12.9-15.8,17.1c-6.9,4.2-14.3,6.3-22.3,6.3
		c-15.5,0-28-5.5-37.5-16.4c-9.5-10.9-14.3-24.7-14.3-41.3V172h34v63.6c0,8.7,2.6,16,7.8,21.7c5.2,5.7,11.6,8.6,19.3,8.6
		c7.4,0,13.7-3,19.1-8.9c5.3-5.9,8-13.3,8-22.1V172H563.4z"/>
	<path class="st0" d="M638,296.3c-16.1,0-30.5-6-43.1-18.1c-12.6-12.1-18.9-27.3-18.9-45.8c0-18.2,6.4-33.3,19.1-45.4
		c12.7-12.1,27-18.1,43-18.1c9.1,0,17.6,2.1,25.5,6.4c7.9,4.3,13.5,9.8,16.6,16.7h0.7l1.2-20h30.1v121H682l-1.2-20h-0.7
		c-3.1,7.1-8.7,12.7-16.8,16.9C655.1,294.2,646.7,296.3,638,296.3z M619.8,256.5c6.7,6.7,14.7,10,24.1,10s17.4-3.3,23.9-10
		c6.6-6.7,9.9-14.7,9.9-24.1c0-9.4-3.3-17.3-9.9-23.9c-6.6-6.5-14.6-9.8-23.9-9.8s-17.4,3.3-24.1,9.8c-6.7,6.5-10,14.5-10,23.9
		C609.8,241.8,613.1,249.8,619.8,256.5z"/>
	<path class="st0" d="M733.7,293V172h29.9l2,20h0.5c3.6-7.1,9-12.7,16.2-16.8c7.2-4.2,15-6.3,23.2-6.3c16.1,0,29.1,5.5,38.9,16.4
		c9.8,10.9,14.7,24.6,14.7,41V293h-34v-63.3c0-8.5-2.7-15.7-8.2-21.6c-5.5-5.9-12.3-8.9-20.5-8.9c-7.9,0-14.6,3.1-20.3,9.2
		c-5.7,6.1-8.5,13.5-8.5,22.1V293H733.7z"/>
	<path class="st0" d="M934.7,267.4c4.1,0,10.1-1.2,18.2-3.7v27.7c-5.5,3.3-13.3,4.9-23.6,4.9c-15.5,0-27.9-4.7-37.2-14.1
		c-9.3-9.4-14-21.1-14-35.2v-48h-21.8V172H878v-31.5h33.9V172h40.7V199h-40.7v45c0,7.1,2,12.7,6,17
		C921.9,265.3,927.5,267.4,934.7,267.4z"/>
	<path class="st0" d="M996,149.1c-4.1,3.8-8.8,5.8-14.2,5.8c-5.4,0-10.1-1.9-14-5.8c-3.9-3.8-5.9-8.5-5.9-14c0-5.3,2-9.9,5.9-13.8
		c3.9-3.9,8.6-5.9,14-5.9c5.4,0,10.1,2,14.2,6c4,4,6.1,8.6,6.1,13.8C1002,140.6,1000,145.2,996,149.1z M964.9,293V172h33.9v121
		H964.9z"/>
	<path class="st0" d="M1073.6,296.3c-16.1,0-30.5-6-43.1-18.1c-12.6-12.1-18.9-27.3-18.9-45.8c0-18.2,6.4-33.3,19.1-45.4
		c12.7-12.1,27-18.1,43-18.1c9.1,0,17.6,2.1,25.5,6.4c7.9,4.3,13.5,9.8,16.6,16.7h0.7l1.2-20h30.1v121h-30.1l-1.2-20h-0.7
		c-3.1,7.1-8.7,12.7-16.8,16.9C1090.8,294.2,1082.4,296.3,1073.6,296.3z M1055.5,256.5c6.7,6.7,14.7,10,24.1,10
		c9.4,0,17.4-3.3,23.9-10c6.6-6.7,9.9-14.7,9.9-24.1c0-9.4-3.3-17.3-9.9-23.9c-6.6-6.5-14.6-9.8-23.9-9.8c-9.4,0-17.4,3.3-24.1,9.8
		c-6.7,6.5-10,14.5-10,23.9C1045.5,241.8,1048.8,249.8,1055.5,256.5z"/>
	<path class="st0" d="M313.1,293l-83-166h-14.8l-50.7,101.5c-11.2-1.3-24.3-5.7-41.2-15.6l-14.7,25c16.2,9.5,30.1,14.9,42.4,17.7
		L132.3,293h36.9l17.2-36.2c7.9-1.1,15-3.1,21.6-4.8c16.9-4.5,29.4-7.9,49.4,1.6l18.7,39.4H313.1z M202.2,223.6l20.5-43.1l18.3,38.5
		C226.1,217.4,213.7,220.5,202.2,223.6z"/>
</g>
<g>
	<circle class="st1" cx="1192.6" cy="267.5" r="28.8"/>
</g>
</svg>
