<?xml version="1.0" encoding="utf-8"?>
<!-- Generator: Adobe Illustrator 25.4.1, SVG Export Plug-In . SVG Version: 6.00 Build 0)  -->
<svg version="1.1" id="Capa_1" xmlns="http://www.w3.org/2000/svg" xmlns:xlink="http://www.w3.org/1999/xlink" x="0px" y="0px"
	 viewBox="0 0 30 30" style="enable-background:new 0 0 30 30;" xml:space="preserve">
<style type="text/css">
	.st0{fill-rule:evenodd;clip-rule:evenodd;fill:#2B73FF;}
	.st1{fill:#2B73FF;}
</style>
<g>
	<path class="st0" d="M15,15c-3.8,0-7-3.1-7-6.9c0-3.1,3.1-6.9,7-6.9c3.8,0,7,3.8,7,6.9C22,11.9,18.8,15,15,15z M15,3.9
		c-2.3,0-4.2,1.9-4.2,4.1c0,2.3,1.9,4.5,4.2,4.5c2.3,0,4.2-2.2,4.2-4.5C19.2,5.8,17.3,3.9,15,3.9z"/>
	<path class="st1" d="M20.6,17.8H15h-1H9.4c-3.8,0-7,3.1-7,6.9v2.8c0,1,0.6,1.4,1.4,1.4s1.4-0.4,1.4-1.4v-2.8c0-2.3,1.9-4.2,4.2-4.2
		H14h1h5.6c2.3,0,4.2,1.9,4.2,4.2v2.8c0,1,0.6,1.4,1.4,1.4s1.4-0.4,1.4-1.4v-2.8C27.5,20.9,24.4,17.8,20.6,17.8z"/>
</g>
</svg>
