<?xml version="1.0" encoding="utf-8"?>
<!-- Generator: Adobe Illustrator 25.4.1, SVG Export Plug-In . SVG Version: 6.00 Build 0)  -->
<svg version="1.1" id="Capa_1" xmlns="http://www.w3.org/2000/svg" xmlns:xlink="http://www.w3.org/1999/xlink" x="0px" y="0px"
	 viewBox="0 0 16 16" style="enable-background:new 0 0 16 16;" xml:space="preserve">
<style type="text/css">
	.st0{fill:#FFFFFF;}
</style>
<g>
	<path class="st0" d="M5.9,6.5C6.5,6,7,5.6,6,4.3C4.9,3.1,4.3,4,3.7,4.6c-0.6,0.6,0,3,2.3,5.4c2.3,2.3,4.7,3,5.4,2.3
		c0.5-0.5,1.5-1.2,0.3-2.2c-1.3-1-1.6-0.5-2.2,0.1c-0.4,0.4-1.4-0.4-2.3-1.3C6.4,7.9,5.5,6.9,5.9,6.5z"/>
	<path class="st0" d="M8,16c-4.4,0-8-3.6-8-8c0-4.4,3.6-8,8-8s8,3.6,8,8C16,12.4,12.4,16,8,16z M8,1C4.1,1,1,4.1,1,8s3.2,7,7,7
		c3.9,0,7-3.2,7-7S11.9,1,8,1z"/>
</g>
</svg>
