<?xml version="1.0" encoding="utf-8"?>
<!-- Generator: Adobe Illustrator 25.4.1, SVG Export Plug-In . SVG Version: 6.00 Build 0)  -->
<svg version="1.1" id="Capa_1" xmlns="http://www.w3.org/2000/svg" xmlns:xlink="http://www.w3.org/1999/xlink" x="0px" y="0px"
	 viewBox="0 0 28 28" style="enable-background:new 0 0 28 28;" xml:space="preserve">
<style type="text/css">
	.st0{fill:#2B73FF;}
</style>
<g>
	<path class="st0" d="M14,28C14,28,14,28,14,28C6.3,28,0,21.7,0,14C0,6.3,6.3,0,14,0c0,0,0,0,0,0c2,0,3.9,0.4,5.7,1.2
		c0.6,0.3,0.9,1,0.6,1.7c-0.3,0.6-1,0.9-1.7,0.6c-1.5-0.7-3-1-4.7-1c0,0,0,0,0,0C7.7,2.5,2.5,7.7,2.5,14c0,6.3,5.1,11.5,11.4,11.5
		c0,0,0,0,0,0c6.3,0,11.5-5.1,11.5-11.4v-1.2c0-0.7,0.6-1.3,1.3-1.3s1.3,0.6,1.3,1.3V14C28,21.7,21.7,28,14,28z"/>
	<path class="st0" d="M14,17.8c-0.3,0-0.7-0.1-0.9-0.4l-3.8-3.8c-0.5-0.5-0.5-1.3,0-1.8c0.5-0.5,1.3-0.5,1.8,0l2.9,2.9L25.8,2.9
		c0.5-0.5,1.3-0.5,1.8,0c0.5,0.5,0.5,1.3,0,1.8L14.9,17.5C14.7,17.7,14.3,17.8,14,17.8z"/>
</g>
</svg>
