<?xml version="1.0" encoding="utf-8"?>
<!-- Generator: Adobe Illustrator 25.4.1, SVG Export Plug-In . SVG Version: 6.00 Build 0)  -->
<svg version="1.1" id="Capa_1" xmlns="http://www.w3.org/2000/svg" xmlns:xlink="http://www.w3.org/1999/xlink" x="0px" y="0px"
	 viewBox="0 0 20 20" style="enable-background:new 0 0 20 20;" xml:space="preserve">
<style type="text/css">
	.st0{fill:#2B73FF;}
</style>
<g>
	<path class="st0" d="M10.1,9.8c-0.3,0-0.6-0.2-0.7-0.5c-0.1-0.4,0.1-0.8,0.5-1c0.4-0.1,1.2-0.6,1.2-1c0-0.4-0.3-0.8-0.6-0.9
		C9.9,6.2,9.4,6.5,9.2,7C9,7.4,8.6,7.6,8.2,7.5c-0.4-0.1-0.6-0.6-0.5-1c0.5-1.3,1.9-2,3.2-1.5c1,0.3,1.7,1.3,1.7,2.3
		c0,1.6-2,2.4-2.2,2.4C10.3,9.8,10.2,9.8,10.1,9.8z"/>
	<path class="st0" d="M10.1,12.1c-0.4,0-0.8-0.3-0.8-0.8c0-0.4,0.3-0.8,0.8-0.8h0c0.4,0,0.8,0.3,0.8,0.8
		C10.9,11.8,10.6,12.1,10.1,12.1z"/>
	<path class="st0" d="M3.2,17.6c-0.1,0-0.2,0-0.3-0.1c-0.3-0.1-0.5-0.4-0.5-0.7V4.7c0-1.3,1-2.3,2.3-2.3h10.6c1.3,0,2.3,1,2.3,2.3
		v7.6c0,1.3-1,2.3-2.3,2.3H6.5l-2.8,2.8C3.6,17.5,3.4,17.6,3.2,17.6z M4.7,4C4.3,4,4,4.3,4,4.7V15l1.7-1.7C5.8,13.1,6,13,6.2,13h9.1
		c0.4,0,0.8-0.3,0.8-0.8V4.7C16,4.3,15.7,4,15.3,4H4.7z"/>
</g>
</svg>
