<?xml version="1.0" encoding="utf-8"?>
<!-- Generator: Adobe Illustrator 25.4.1, SVG Export Plug-In . SVG Version: 6.00 Build 0)  -->
<svg version="1.1" id="Capa_1" xmlns="http://www.w3.org/2000/svg" xmlns:xlink="http://www.w3.org/1999/xlink" x="0px" y="0px"
	 viewBox="0 0 28 28" style="enable-background:new 0 0 28 28;" xml:space="preserve">
<style type="text/css">
	.st0{fill-rule:evenodd;clip-rule:evenodd;fill:#2B73FF;}
	.st1{fill:#FFFFFF;}
</style>
<g>
	<path class="st0" d="M14,0c7.7,0,14,6.3,14,14c0,7.7-6.3,14-14,14C6.3,28,0,21.7,0,14C0,6.3,6.3,0,14,0z"/>
	<g>
		<path class="st1" d="M23.5,11h-19C4.2,11,4,11.2,4,11.5v11.1c0,0.3,0.2,0.5,0.5,0.5h19c0.3,0,0.5-0.2,0.5-0.5V11.5
			C24,11.2,23.8,11,23.5,11z M5,22.1V12h18v10.1H5z"/>
		<path class="st1" d="M21.7,14.7c-0.8,0-1.4-0.6-1.4-1.4c0-0.3-0.2-0.5-0.5-0.5H8.2c-0.3,0-0.5,0.2-0.5,0.5c0,0.8-0.6,1.4-1.4,1.4
			c-0.3,0-0.5,0.2-0.5,0.5v3.7c0,0.3,0.2,0.5,0.5,0.5c0.8,0,1.4,0.6,1.4,1.4c0,0.3,0.2,0.5,0.5,0.5h11.6c0.3,0,0.5-0.2,0.5-0.5
			c0-0.8,0.6-1.4,1.4-1.4c0.3,0,0.5-0.2,0.5-0.5v-3.7C22.2,14.9,22,14.7,21.7,14.7z M8.7,20.3c-0.2-0.9-0.9-1.7-1.9-1.9v-2.8
			c0.9-0.2,1.7-0.9,1.9-1.9h10.7c0.2,0.9,0.9,1.7,1.9,1.9v2.8c-0.9,0.2-1.7,0.9-1.9,1.9H8.7z"/>
		<path class="st1" d="M14,14.4c-1.5,0-2.6,1.2-2.6,2.6c0,1.5,1.2,2.6,2.6,2.6c1.5,0,2.6-1.2,2.6-2.6C16.6,15.6,15.5,14.4,14,14.4z
			 M14,18.7c-0.9,0-1.6-0.7-1.6-1.6c0-0.9,0.7-1.6,1.6-1.6c0.9,0,1.6,0.7,1.6,1.6C15.6,18,14.9,18.7,14,18.7z"/>
		<path class="st1" d="M19.4,16.6h-1.3c-0.3,0-0.5,0.2-0.5,0.5c0,0.3,0.2,0.5,0.5,0.5h1.3c0.3,0,0.5-0.2,0.5-0.5
			C19.9,16.8,19.7,16.6,19.4,16.6z"/>
		<path class="st1" d="M9.9,16.6H8.6c-0.3,0-0.5,0.2-0.5,0.5c0,0.3,0.2,0.5,0.5,0.5h1.3c0.3,0,0.5-0.2,0.5-0.5
			C10.4,16.8,10.2,16.6,9.9,16.6z"/>
		<path class="st1" d="M5.5,10h17c0.3,0,0.5-0.2,0.5-0.5c0-0.3-0.2-0.5-0.5-0.5h-17C5.2,8.9,5,9.2,5,9.5C5,9.7,5.2,10,5.5,10z"/>
		<path class="st1" d="M6.5,7.9h15c0.3,0,0.5-0.2,0.5-0.5c0-0.3-0.2-0.5-0.5-0.5h-15C6.2,6.9,6,7.1,6,7.4C6,7.7,6.2,7.9,6.5,7.9z"/>
		<path class="st1" d="M7.5,5.9h13c0.3,0,0.5-0.2,0.5-0.5c0-0.3-0.2-0.5-0.5-0.5h-13C7.2,4.9,7,5.1,7,5.4C7,5.7,7.2,5.9,7.5,5.9z"/>
	</g>
</g>
</svg>
