<?xml version="1.0" encoding="utf-8"?>
<!-- Generator: Adobe Illustrator 25.4.1, SVG Export Plug-In . SVG Version: 6.00 Build 0)  -->
<svg version="1.1" id="Capa_1" xmlns="http://www.w3.org/2000/svg" xmlns:xlink="http://www.w3.org/1999/xlink" x="0px" y="0px"
	 viewBox="0 0 115 140" style="enable-background:new 0 0 115 140;" xml:space="preserve">
<style type="text/css">
	.st0{fill-rule:evenodd;clip-rule:evenodd;fill:#6B8FD5;}
</style>
<path class="st0" d="M113.1,58.6C113.1,58.6,113.1,58.6,113.1,58.6c-1,0-1.9-0.8-1.9-1.9c0-2-0.2-4.9-0.6-7.3c-0.2-1,0.6-2,1.6-2.1
	c1-0.2,2,0.6,2.1,1.6c0.5,2.6,0.6,5.2,0.6,7.8C115,57.7,114.2,58.5,113.1,58.6z M111.4,43.5c-0.2,0.1-0.4,0.1-0.5,0.1
	c-0.8,0-1.6-0.5-1.8-1.4c-0.7-2.3-1.5-4.6-2.5-6.9c-0.4-1,0-2.1,0.9-2.5c0.9-0.4,2.1,0,2.5,1c1.1,2.4,2,4.9,2.7,7.4
	C113,42.2,112.4,43.2,111.4,43.5z M106.5,29.5c-1,0.2-1.4,0.3-0.8,0.3c-1.5,0-2.1-0.3-2.5-0.9c-1.3-2.1-2.7-4.1-4.2-5.1
	c-0.7-1.6-0.5-2.8,0.3-3.5c0.8-0.7,2-0.6,2.6,0.3c1.6,2,3.2,4.1,4.5,6.8C106.9,27.8,106.7,29.3,106.5,29.5z M95.2,18.2
	c-0.5,0-0.9-0.2-1.3-0.5c-1.8-1.7-3.7-3.2-5.7-4.6c-0.8-0.6-1.1-1.8-0.5-2.6c0.6-0.9,1.8-1.1,2.6-0.5c2.1,1.5,4.2,3.1,6.1,5.7
	c0.8-0.1,0.8,1.1,0.1,1.9C96.2,18,96.4,18.2,95.2,18.2z M91.9,103.6c0.6,0,1.8-0.9,2.6-0.3c0.8,0.7,0.9,1.8,0.3,2.7
	c-1.6,2-3.2,3.9-4.9,6.1c-0.4,0.2-0.9,0.4-1.4,0.4c-0.4,0-0.9-0.2-1.2-0.5c-0.8-0.7-0.8-1.9-0.1-2.7
	C88.8,107.4,90.4,105.5,91.9,103.6z M79.3,122.8c-0.4,0.3-0.8,0.5-1.3,0.5c-0.5,0-1-0.2-1.2-0.6c-0.9-0.3-0.8-2-0.1-2.7
	c1.8-1.7,3.6-3.5,5.3-5.2c0.7-0.7,1.9-0.8,3.2,0c0.2,0.7,0.2,1.9,0.3,2.7C83,119.2,81.1,121,79.3,122.8z M82.9,9.5
	c-0.2,0-0.6-0.1-0.9-0.2c-2.2-1.1-3.9-2.1-6.7-2.9c-1-0.3-1.5-1.4-1.1-2.4c0.3-1,1.9-1.5,2.7-1.2c2.2,1.1,4.6,2.2,6.9,3.1
	c1.6,0.5,1.3,1.6,0.8,2.5C84.2,9.1,83.6,9.5,82.9,9.5z M75.3,52c-0.2,0.1-0.5,0.1-0.2,0.1c-1.2,0-1.9-0.4-2.2-1.2
	c-0.8-2-2.1-3.9-3.6-5.4c-0.7-0.7-0.7-1.9,0-2.7c0.7-0.5,1.9-0.5,2.7,0c1.9,1.9,3.4,4.2,4.4,6.6C76.8,50.5,76.3,51.6,75.3,52z
	 M68.7,4.5c0.3,0-0.3,0-0.4,0c-2.4-0.5-4.5-0.8-7.2-1c-1-0.1-1.8-1-1.7-2c0.1-1,1-1.5,2-1.4c2.6-0.2,5.5,0.2,7.7,1.4
	c1-0.5,1.7,0.5,2,1.6C70.4,3.9,70,4.5,68.7,4.5z M66.3,40.9c-0.3,0.7-1,1.2-1.2,1.2c-0.8,0-1,0-1.3-0.1c-2-0.8-4.2-1.3-6.4-1.3h-0.1
	c-1,0-1.4-0.8-1.4-1.9c0-1,0.4-1.9,1.4-1.9h0c2.8,0,5.4,0.5,7.8,1.6C66.3,38.8,66.7,39.9,66.3,40.9z M53.8,3.5
	c-2.4,0.2-4.8,0.5-7.2,1c0.4,0-0.3,0-0.4,0c-0.9,0-1.7-0.6-1.8-1.5c-0.2-1,0.4-2,1.5-1.5c2.5-1.2,5.1-1.6,7.7-1.4
	c1-0.1,2.3,0.4,2,1.4C55.7,2.5,54.9,3.4,53.8,3.5z M52.1,39.4c0.4,1,0,2.1-1,2.5c-2,0.9-3.8,2.1-5.4,3.7c-0.4,0.4-0.8,0.6-1.3,0.6
	c-0.5,0-1-0.2-1.3-0.5c-0.7-0.7-0.7-1.9,0-2.7c1.9-1.9,4.1-3.4,6.6-4.5C51.5,38,51.7,38.5,52.1,39.4z M40.8,57.4
	c0,1-0.8,2.2-1.9,2.2s-1.9-1.1-1.9-2.1c0,0,0-0.1,0,0.8c0-3.5,0.5-6.2,1.5-8.6c0.4-1,1.5-0.9,2.4-1c1,0.4,1.7,1.5,1,2.5
	C41.3,53,40.8,55.2,40.8,57.4z M39.6,6.4c-2.3,0.8-4.5,1.8-6.7,2.9c-0.3,0.1-0.6,0.2-0.9,0.2c-0.5,0-1.3-0.4-1.4-1
	c-0.7-0.9-0.4-2.1,0.5-2.5c2.3-0.8,4.7-1.6,7.2-3.1c1-0.3,2,0.2,2.4,1.2C41.1,5,40.6,6.1,39.6,6.4z M33,114.8
	c1.7,1.8,4.3,3.5,5.3,5.2c0.8,0.7,0.8,2.4,0.1,2.7c-0.4,0.4-0.9,0.6-1.4,0.6c-0.5,0-0.9-0.2-1.3-0.5c-1.9-1.8-3.7-3.6-5.5-5.4
	c-0.7-0.7-0.7-1.9,0-2.7C31.1,114,32.3,114,33,114.8z M26.5,112.4c-0.5,0-0.1-0.2-1.4-0.2c-1.6-2.3-3.4-4.3-4.9-6.3
	c-0.6-0.8-0.5-2,1.2-2.7c-0.1-0.7,1.8,0.4,1.8,0.3c1.5,1.9,3.1,3.8,4.8,5.7c0.7,0.8,0.6,2-0.2,2.7C27.5,112.3,26.9,112.4,26.5,112.4
	z M26.7,13.1c-2,1.4-3.9,2.9-5.7,4.6c-0.4,0.3-0.8,0.5-1.3,0.5c-0.5,0-1-0.2-0.8-0.6c-1.3-0.8-1.2-2-0.5-1.9
	c2.5-2.5,4.8-4.2,6.1-5.7c1.3-0.6,2-0.4,2.6,0.5C27.8,11.3,27.6,12.5,26.7,13.1z M11.8,28.9c-0.4,0.6-1,0.9-1.6,0.9
	c-0.3,0-0.7-0.1-1-0.3c-0.5-0.2-1.2-1.7-0.6-2c1.4-2.8,2.9-5,4.5-7c0.7-0.8,1.8-0.9,2.6-0.3c0.8,0.7,0.9,1.9,0.3,3.5
	C14.5,24.9,13.1,26.9,11.8,28.9z M9.2,35.4c-1.8,2.2-2.7,4.5-3.4,6.9c-0.2,0.8-1,1.4-1.8,1.4c-0.2,0-0.3,0-0.5-0.1
	c-1-0.3-1.6-1.3-1.2-2.3c0.6-2.5,1.5-5,2.6-7.4c0.4-1,1.5-1.4,2.5-1C9.2,33.3,8.8,34.4,9.2,35.4z M2.7,47.3c1,0.2,1.7,1.1,2.1,2.1
	c-0.9,2.4-1.1,5.4-1.1,7.3c0,1-0.9,1.9-1.9,1.9c0,0,0,0,0,0c-1,0-1.9-0.9-1.9-1.9c0-2.6,0.2-5.2,0.6-7.8C0.8,47.8,1.7,47.1,2.7,47.3
	z M2.1,63.2c1-0.9,2-0.2,2.1,0.8c0.3,2.7,0.8,4.8,1.4,7.2c0.3,1-0.2,2-1.2,3.2c-0.3-0.8-0.4-0.8-0.6-0.8C3,73.5,2.2,73,2,72.1
	c-0.2-2.6-1.2-5.1-1.5-7.7C1,63.5,1.1,62.5,2.1,63.2z M5.5,77.1c1-0.4,2.1,0.1,2.4,1.1c0.9,2.2,1.9,4.5,3,6.8
	c1.2,0.9,0.1,2.1-0.8,2.5c-0.3,0.8-0.6,0.2-0.8,0.2c-0.7,0-1.3-0.4-1.7-1c-0.3-2.4-1.9-4.7-3.2-6.2C4,78.6,4.5,77.9,5.5,77.1z
	 M11.9,90.8c0.9-0.5,2-0.3,2.6,0.6c1.2,2.1,2.6,4.1,4.1,6.8c0.6,0.2,0.4,1.6-0.4,2c-0.3,0.2-0.7,0.3-1.1,0.3c-0.6,0-1.2-0.3-1.5-0.8
	c-1.5-1.7-2.9-4.3-3.7-6.4C10.8,92.5,11,91.3,11.9,90.8z M43.1,71.9c-1.9-1.9-3.4-4.1-4.4-6.6c-0.4-0.9,0.1-2.1,1-2.5
	c1-0.4,2.1,0.1,2.5,1c0.8,2,2.1,3.9,3.6,5.4c1,0.7,1,1.9,0,2.7c-0.4,0.4-0.8,1.3-1.3,1.3C43.9,73.2,43.7,72.3,43.1,71.9z M43.9,125
	c1.9,1.6,3.8,3.3,5.7,4.8c0.8,0.7,1.8,1.8,0.3,2.7c0.4,0.5-0.9,0.7-1.5,0.7c-0.4,0-0.8-0.1-1.2-0.4c-2-1.6-3.9-3.2-5.9-4.9
	c-0.8-0.7-0.9-1.9-0.2-2.7C41.9,124.4,43.1,124.4,43.9,125z M57.5,77.9c-2.7,0-5.3-0.5-7.8-1.5c-1-0.4-1.4-1.5-1-2.5s1.5-0.7,2.5-1
	c2,0.8,4.1,1.3,6.3,1.3c1.3,0,1.9,0.8,1.9,1.9s-0.2,1.9-1.5,1.9H57.5z M56,134.4c0.3,1.4,1,1.1,1.5,1.4c0.5-0.3,1.2-0.1,2-1.4
	c0.8-0.6,2-0.4,2.6,0.4c0.6,0.8,0.4,2-0.4,2.6c-1.9,1.4-2.3,2.2-2.8,2.2c-0.7,0.2-1,0.3-1.4,0.3c-0.4,0-0.7-0.1-1-0.3
	c0,0-1.2-0.8-3.1-2.2c-0.7-0.6-1-1.8-0.4-2.6C54,134,54.7,133.8,56,134.4z M63.9,72.8c2-0.8,3.8-2.1,5.4-3.6c0.7-0.7,1.9-0.7,2.7,0
	c0.7,0.7,0.7,1.9,0,2.7c-1.9,1.9-4.1,3.4-6.6,4.5c-0.2,0.1-0.5,0.5,0.2,0.5c-1.6,0-2.3-0.8-2.6-1.5C62.5,74.3,62.9,73.2,63.9,72.8z
	 M65.4,129.8c1.9-1.6,3.9-3.2,5.7-4.8c0.8-0.7,2-0.6,2.6,0.2c0.7,0.8,0.6,2,0,2.7c-2.1,1.7-4.1,3.3-6,4.9c-0.3,1.1-0.8,0.4-1,0.4
	c-0.7,0-1.3-0.2-1.7-0.7C64.4,131.7,65,130.5,65.4,129.8z M72.9,63.8c0.8-2,1.3-4.2,1.3-6.4c0-1,0.8-1.9,1.9-1.9
	c1,0,1.9,1.6,1.9,1.9v0c0,2.7-0.5,5.3-1.5,7.8c-0.3,0.7-1,1.5-1.1,1.5c-0.9,0-1.1-0.4-1.3-0.5C73,65.8,72.5,64.7,72.9,63.8z
	 M100.5,91.4c0.5-0.9,1.7-1.2,2.6-0.6c0.9,0.5,1.2,1.7,1.3,2.6c-2,2.1-3.4,4.6-4.9,6.4c-0.4,0.5-0.9,0.8-1.5,0.8
	c-0.4,0-0.8-0.1-1.1-0.3c-0.8-0.6-1-1.8-0.4-2.6C97.9,95.5,99.3,93.5,100.5,91.4z M104.1,84.9c1.1-2.2,2.1-4.5,3-6.7
	c0.4-1,1.5-1.5,2.4-1.1c1,0.7,1.4,1.5,1.1,3.1c-0.9,1.7-2,4.1-3.1,7.2c-0.3-0.1-1,0.3-1.1,0.3c-0.9,0-1.2,0.4-1.4-0.2
	C104,87,103.6,85.8,104.1,84.9z M109.4,71.2c0.6-2.4,1.1-4.7,2.2-7.2c-0.6-1,0.3-1.8,1.4-1c1-0.5,1.8,0.4,1.6,1.5
	c-0.3,2.5-0.8,5.1-1.5,7.7c0.3,0.8-1,1.4-1.8,1.4c-0.2,0-0.3,0-0.5,0.6C109.7,73.2,109.1,72.2,109.4,71.2z"/>
</svg>
