<?xml version="1.0" encoding="utf-8"?>
<!-- Generator: Adobe Illustrator 25.4.1, SVG Export Plug-In . SVG Version: 6.00 Build 0)  -->
<svg version="1.1" id="Capa_1" xmlns="http://www.w3.org/2000/svg" xmlns:xlink="http://www.w3.org/1999/xlink" x="0px" y="0px"
	 viewBox="0 0 28 28" style="enable-background:new 0 0 28 28;" xml:space="preserve">
<style type="text/css">
	.st0{fill-rule:evenodd;clip-rule:evenodd;fill:#2B73FF;}
	.st1{fill:#FFFFFF;}
</style>
<g>
	<path class="st0" d="M14,0c7.7,0,14,6.3,14,14c0,7.7-6.3,14-14,14C6.3,28,0,21.7,0,14C0,6.3,6.3,0,14,0z"/>
	<g>
		<path class="st1" d="M7.3,13.8H4.5C4.2,13.8,4,14,4,14.3v4.1c0,0.3,0.2,0.5,0.5,0.5h2.8c0.3,0,0.5-0.2,0.5-0.5v-4.1
			C7.8,14,7.6,13.8,7.3,13.8z M5,17.9v-3.1h1.8v3.1H5z"/>
		<path class="st1" d="M11.9,9.7H9.1c-0.3,0-0.5,0.2-0.5,0.5v8.2c0,0.3,0.2,0.5,0.5,0.5h2.8c0.3,0,0.5-0.2,0.5-0.5v-8.2
			C12.4,9.9,12.2,9.7,11.9,9.7z M9.6,17.9v-7.2h1.8v7.2H9.6z"/>
		<path class="st1" d="M14.2,15.7v-2.9H16v0.5c0,0.3,0.2,0.5,0.5,0.5s0.5-0.2,0.5-0.5v-1c0-0.3-0.2-0.5-0.5-0.5h-2.8
			c-0.3,0-0.5,0.2-0.5,0.5v3.4c0,0.3,0.2,0.5,0.5,0.5C14,16.2,14.2,16,14.2,15.7z"/>
		<path class="st1" d="M18.3,8.1c-0.3,0-0.5,0.2-0.5,0.5v4.3c0,0.3,0.2,0.5,0.5,0.5c0.3,0,0.5-0.2,0.5-0.5V9.1h1.8v4.1
			c0,0.3,0.2,0.5,0.5,0.5c0.3,0,0.5-0.2,0.5-0.5V8.6c0-0.3-0.2-0.5-0.5-0.5H18.3z"/>
		<path class="st1" d="M5,11.3c0.1,0,0.2,0,0.3-0.1l5.3-4.4L14.6,9c0.2,0.1,0.4,0.1,0.6,0l5.7-4.2C21.1,4.6,21.2,4.3,21,4
			c-0.1-0.1-0.2-0.2-0.3-0.2c-0.1,0-0.3,0-0.4,0.1l-5.5,4l-3.9-2.3c-0.2-0.1-0.4-0.1-0.6,0l-5.6,4.6c-0.1,0.1-0.2,0.2-0.2,0.3
			c0,0.1,0,0.3,0.1,0.4C4.7,11.2,4.9,11.3,5,11.3z"/>
		<path class="st1" d="M18.9,13.9c-2.8,0-5.1,2.3-5.1,5.1c0,2.8,2.3,5.1,5.1,5.1c2.8,0,5.1-2.3,5.1-5.1C24,16.2,21.7,13.9,18.9,13.9
			z M18.9,14.9c2.3,0,4.1,1.8,4.1,4.1s-1.8,4.1-4.1,4.1s-4.1-1.8-4.1-4.1S16.7,14.9,18.9,14.9z"/>
		<path class="st1" d="M18.9,20.7c-0.5,0-0.8-0.3-0.8-0.6c0-0.3-0.2-0.5-0.5-0.5c-0.3,0-0.5,0.2-0.5,0.5c0,0.7,0.6,1.3,1.4,1.5v0.1
			c0,0.3,0.2,0.5,0.5,0.5c0.3,0,0.5-0.2,0.5-0.5v-0.1c0.8-0.2,1.4-0.8,1.4-1.5c0-0.9-0.8-1.6-1.9-1.6c-0.5,0-0.8-0.3-0.8-0.6
			c0-0.3,0.4-0.6,0.8-0.6c0.5,0,0.8,0.3,0.8,0.6c0,0.3,0.2,0.5,0.5,0.5c0.3,0,0.5-0.2,0.5-0.5c0-0.7-0.6-1.3-1.4-1.5v-0.1
			c0-0.3-0.2-0.5-0.5-0.5c-0.3,0-0.5,0.2-0.5,0.5v0.1C17.6,16.6,17,17.2,17,18c0,0.9,0.8,1.6,1.9,1.6c0.5,0,0.8,0.3,0.8,0.6
			C19.8,20.4,19.4,20.7,18.9,20.7z"/>
	</g>
</g>
</svg>
