<?xml version="1.0" encoding="utf-8"?>
<!-- Generator: Adobe Illustrator 25.4.1, SVG Export Plug-In . SVG Version: 6.00 Build 0)  -->
<svg version="1.1" id="Capa_1" xmlns="http://www.w3.org/2000/svg" xmlns:xlink="http://www.w3.org/1999/xlink" x="0px" y="0px"
	 viewBox="0 0 24 24" style="enable-background:new 0 0 24 24;" xml:space="preserve">
<style type="text/css">
	.st0{fill-rule:evenodd;clip-rule:evenodd;fill:#2B73FF;}
	.st1{fill:#FFFFFF;}
</style>
<g>
	<path class="st0" d="M12,0c6.6,0,12,5.4,12,12c0,6.6-5.4,12-12,12S0,18.6,0,12C0,5.4,5.4,0,12,0z"/>
	<path class="st1" d="M7.2,11.6c0-0.1,0.1-0.2,0.2-0.3l3.9-3.9c0.4-0.4,1-0.4,1.4,0c0.4,0.4,0.4,1,0,1.4L10.5,11h5.4
		c0.5,0,1,0.4,1,1c0,0.5-0.4,1-1,1h-5.4l2.2,2.2c0.4,0.4,0.4,1,0,1.4c-0.2,0.2-0.4,0.3-0.7,0.3c-0.2,0-0.5-0.1-0.7-0.3l-3.9-3.9
		c-0.1-0.1-0.2-0.2-0.2-0.3C7.1,12.1,7.1,11.9,7.2,11.6z"/>
</g>
</svg>
