<?xml version="1.0" encoding="utf-8"?>
<!-- Generator: Adobe Illustrator 25.4.1, SVG Export Plug-In . SVG Version: 6.00 Build 0)  -->
<svg version="1.1" id="Capa_1" xmlns="http://www.w3.org/2000/svg" xmlns:xlink="http://www.w3.org/1999/xlink" x="0px" y="0px"
	 viewBox="0 0 28 28" style="enable-background:new 0 0 28 28;" xml:space="preserve">
<style type="text/css">
	.st0{fill-rule:evenodd;clip-rule:evenodd;fill:#2B73FF;}
	.st1{fill:#FFFFFF;}
</style>
<g>
	<path class="st0" d="M14,0c7.7,0,14,6.3,14,14c0,7.7-6.3,14-14,14C6.3,28,0,21.7,0,14C0,6.3,6.3,0,14,0z"/>
	<g>
		<path class="st1" d="M23.9,17.6c-0.3-0.4-0.7-0.8-1.2-0.9c-0.5-0.1-1-0.1-1.5,0.2L17.5,19c-0.1-0.7-0.5-1.3-1.2-1.5l-3.1-1.1
			c-0.2-0.1-0.5-0.1-0.7-0.1c0,0,0,0,0,0l-5,0.9l0.2,1l5-0.9c0.1,0,0.2,0,0.3,0l3.1,1.1c0.4,0.1,0.6,0.5,0.5,0.9
			c-0.1,0.2-0.2,0.3-0.4,0.4c-0.2,0.1-0.4,0.1-0.6,0l-3.1-1.1c-0.3-0.1-0.6,0.1-0.7,0.3c-0.1,0.3,0.1,0.6,0.3,0.7l3.1,1.1
			c0.2,0.1,0.4,0.1,0.6,0.1c0.3,0,0.5-0.1,0.8-0.2c0,0,0.1,0,0.1-0.1c0,0,0,0,0,0l5-2.9c0.4-0.3,1-0.1,1.2,0.3
			c0.3,0.4,0.1,1-0.3,1.2l-5.7,3.3c-0.1,0.1-0.3,0.1-0.5,0.1l-8.6-1.6c-0.1,0-0.3,0-0.4,0.1c-0.1,0.1-0.2,0.2-0.2,0.3
			c0,0.1,0,0.3,0.1,0.4c0.1,0.1,0.2,0.2,0.3,0.2l8.6,1.6c0.1,0,0.2,0,0.3,0c0.3,0,0.6-0.1,0.9-0.2l5.7-3.3c0.4-0.3,0.8-0.7,0.9-1.2
			C24.2,18.6,24.1,18,23.9,17.6z"/>
		<path class="st1" d="M6.1,16.1H4.8c-0.5,0-0.9,0.4-0.9,0.9v5.3c0,0.5,0.4,0.9,0.9,0.9h1.3c0.5,0,0.9-0.4,0.9-0.9V17
			C7,16.5,6.6,16.1,6.1,16.1z M6,17.1v5.1H4.9v-5.1H6z"/>
		<path class="st1" d="M10.7,9.7c1.5,0,2.7-1.2,2.7-2.7s-1.2-2.7-2.7-2.7C9.2,4.2,7.9,5.4,7.9,7S9.2,9.7,10.7,9.7z M10.7,8.7
			C9.7,8.7,9,7.9,9,7s0.8-1.7,1.7-1.7c0.9,0,1.7,0.8,1.7,1.7S11.6,8.7,10.7,8.7z"/>
		<path class="st1" d="M18.6,15.4c2.3,0,4.1-1.8,4.1-4.1c0-2.3-1.8-4.1-4.1-4.1c-2.3,0-4.1,1.8-4.1,4.1
			C14.5,13.6,16.4,15.4,18.6,15.4z M18.6,14.4c-1.7,0-3.1-1.4-3.1-3.1c0-1.7,1.4-3.1,3.1-3.1c1.7,0,3.1,1.4,3.1,3.1
			C21.7,13,20.3,14.4,18.6,14.4z"/>
		<path class="st1" d="M18.7,10.1c0.3,0,0.6,0.2,0.6,0.4c0,0.3,0.2,0.5,0.5,0.5c0.3,0,0.5-0.2,0.5-0.5c0-0.6-0.4-1.1-1-1.2v0
			c0-0.3-0.2-0.5-0.5-0.5c-0.3,0-0.5,0.2-0.5,0.5v0c-0.6,0.2-1,0.7-1,1.2c0,0.7,0.7,1.3,1.5,1.3c0.3,0,0.6,0.2,0.6,0.4
			c0,0.2-0.3,0.4-0.6,0.4c-0.3,0-0.6-0.2-0.6-0.4c0-0.3-0.2-0.5-0.5-0.5c-0.3,0-0.5,0.2-0.5,0.5c0,0.6,0.4,1.1,1,1.2v0
			c0,0.3,0.2,0.5,0.5,0.5c0.3,0,0.5-0.2,0.5-0.5v0c0.6-0.2,1-0.7,1-1.2c0-0.7-0.7-1.3-1.5-1.3c-0.3,0-0.6-0.2-0.6-0.4
			C18.1,10.3,18.4,10.1,18.7,10.1z"/>
	</g>
</g>
</svg>
