<?xml version="1.0" encoding="utf-8"?>
<!-- Generator: Adobe Illustrator 25.4.1, SVG Export Plug-In . SVG Version: 6.00 Build 0)  -->
<svg version="1.1" id="Capa_1" xmlns="http://www.w3.org/2000/svg" xmlns:xlink="http://www.w3.org/1999/xlink" x="0px" y="0px"
	 viewBox="0 0 20 20" style="enable-background:new 0 0 20 20;" xml:space="preserve">
<style type="text/css">
	.st0{fill:#2B73FF;}
</style>
<g>
	<path class="st0" d="M14.2,19.8H2.4c-1.3,0-2.3-1-2.3-2.3V2.4c0-1.3,1-2.3,2.3-2.3h10.4c0.4,0,0.8,0.3,0.8,0.8s-0.3,0.8-0.8,0.8
		H2.4C2,1.7,1.7,2,1.7,2.4v15.1c0,0.4,0.3,0.8,0.8,0.8h11.7c0.4,0,0.8-0.3,0.8-0.8v-7.4c0-0.4,0.3-0.8,0.8-0.8
		c0.4,0,0.8,0.3,0.8,0.8v7.4C16.4,18.8,15.4,19.8,14.2,19.8z"/>
	<path class="st0" d="M8.4,12.4c-0.2,0-0.4-0.1-0.5-0.2c-0.2-0.2-0.3-0.5-0.2-0.7l0.8-3c0-0.1,0.1-0.3,0.2-0.4l7.2-7.2
		c0.9-0.9,2.4-0.9,3.3,0c0.9,0.9,0.9,2.4,0,3.3L12,11.4c-0.1,0.1-0.2,0.2-0.4,0.2l-3,0.8C8.5,12.4,8.5,12.4,8.4,12.4z M11.4,10.8
		L11.4,10.8L11.4,10.8z M9.8,9l-0.4,1.6l1.6-0.4l7-7c0.3-0.3,0.3-0.9,0-1.2c-0.3-0.3-0.9-0.3-1.2,0L9.8,9z"/>
	<path class="st0" d="M13,14.7H4.3c-0.4,0-0.8-0.3-0.8-0.8s0.3-0.8,0.8-0.8H13c0.4,0,0.8,0.3,0.8,0.8S13.4,14.7,13,14.7z"/>
	<path class="st0" d="M9.6,5.1H4.3c-0.4,0-0.8-0.3-0.8-0.8c0-0.4,0.3-0.8,0.8-0.8h5.3c0.4,0,0.8,0.3,0.8,0.8
		C10.3,4.8,10,5.1,9.6,5.1z"/>
	<path class="st0" d="M6.7,9.9H4.3c-0.4,0-0.8-0.3-0.8-0.8c0-0.4,0.3-0.8,0.8-0.8h2.4c0.4,0,0.8,0.3,0.8,0.8
		C7.5,9.6,7.1,9.9,6.7,9.9z"/>
</g>
</svg>
