<?xml version="1.0" encoding="utf-8"?>
<!-- Generator: Adobe Illustrator 25.4.1, SVG Export Plug-In . SVG Version: 6.00 Build 0)  -->
<svg version="1.1" id="Capa_1" xmlns="http://www.w3.org/2000/svg" xmlns:xlink="http://www.w3.org/1999/xlink" x="0px" y="0px"
	 viewBox="0 0 176 176" style="enable-background:new 0 0 176 176;" xml:space="preserve">
<style type="text/css">
	.st0{fill:#2B73FF;}
	.st1{fill:#FFFFFF;}
</style>
<g>
	<circle class="st0" cx="88" cy="88" r="88"/>
	<path class="st1" d="M142.9,126.6h-3.2c-1-5.9-6.1-10.4-12.2-10.4c0,0,0,0,0,0c0-0.1,0-0.3,0-0.4c0-6.8-5.6-12.4-12.4-12.4
		c-0.9,0-1.8,0.1-2.6,0.3c-0.9-4.5-3.7-8.4-7.5-10.7l-6-19.1c-0.2-0.6-0.7-1.1-1.2-1.3c-0.6-0.2-1.3-0.1-1.8,0.2l-10,6.8L64.6,48.8
		l-0.8-10.1c-0.1-0.7-0.5-1.3-1.1-1.7c-0.6-0.3-1.4-0.2-2,0.2l-0.6,0.4l-4-2.6c-0.7-0.5-1.6-0.4-2.2,0L47,39.7
		c-0.7,0.5-1,1.3-0.8,2.1l1.1,4.7l-0.6,0.4c-0.6,0.4-0.9,1.1-0.9,1.8c0.1,0.7,0.5,1.3,1.1,1.6l9.2,4.3l21.2,30.7l-9.9,6.7
		c-0.5,0.3-0.8,0.9-0.9,1.5c-0.1,0.6,0.2,1.2,0.6,1.6l7.4,7.3c-2.2,1.9-3.8,4.5-4.3,7.5c-4.1,0.1-7.8,2.2-9.9,5.6
		c-6,0.5-10.7,5.2-11.3,11.1h-4c-1.1,0-2,0.9-2,2c0,1.1,0.9,2,2,2h6h11.5h9.3H79h63.9c1.1,0,2-0.9,2-2
		C144.9,127.5,144,126.6,142.9,126.6z M50.4,42.2l4.6-3.2l1.5,1l-5.8,4L50.4,42.2z M60.1,42.4l0.5,6.1l-3.3,2.2l-5.5-2.6L60.1,42.4z
		 M60.3,53.6l1.9-1.3l20.4,29.5l-1.9,1.3L60.3,53.6z M71.7,94l24.2-16.4l4.2,13.4c-1.1-0.3-2.3-0.4-3.5-0.4
		c-6.2,0-11.7,3.4-14.4,8.9c-1.4,0-2.8,0.3-4.1,0.8L71.7,94z M71.8,126.6h-9.3h-9.4c0.6-4,4.1-7.2,8.3-7.2h0.2
		c0.7,0,1.4-0.4,1.8-1.1c1.5-2.8,4.3-4.5,7.4-4.5c0.4,0,0.8,0,1.1,0.1c0.6,0.1,1.1-0.1,1.6-0.5c0.4-0.4,0.7-1,0.7-1.5
		c0-4.6,3.8-8.4,8.4-8.4c0.3,0,0.5,0,0.8,0c0.9,0.1,1.7-0.4,2-1.3c1.8-4.6,6.3-7.7,11.2-7.7c6.5,0,11.9,5.3,12,11.8
		c0,0.7,0.4,1.3,0.9,1.7c0.6,0.4,1.3,0.4,1.9,0.1c1.1-0.5,2.3-0.8,3.5-0.8c4.6,0,8.4,3.8,8.4,8.4c0,0.8-0.1,1.5-0.3,2.2
		c-0.2,0.7,0,1.4,0.5,1.9c0.5,0.5,1.2,0.7,1.9,0.6c0.6-0.2,1.3-0.2,1.9-0.2c3.9,0,7.3,2.7,8.2,6.4H79H71.8z"/>
</g>
</svg>
