<?xml version="1.0" encoding="utf-8"?>
<!-- Generator: Adobe Illustrator 25.4.1, SVG Export Plug-In . SVG Version: 6.00 Build 0)  -->
<svg version="1.1" id="Capa_1" xmlns="http://www.w3.org/2000/svg" xmlns:xlink="http://www.w3.org/1999/xlink" x="0px" y="0px"
	 viewBox="0 0 17 16" style="enable-background:new 0 0 17 16;" xml:space="preserve">
<style type="text/css">
	.st0{fill:#EAA604;}
</style>
<path class="st0" d="M13.3,16c-0.1,0-0.2,0-0.4-0.1l-4.4-2.3l-4.4,2.3C3.8,16,3.5,16,3.3,15.9C3,15.7,2.9,15.4,3,15.1l0.8-4.9
	L0.2,6.8C0,6.6-0.1,6.3,0,6c0.1-0.3,0.3-0.5,0.6-0.5l4.9-0.7l2.2-4.4c0.3-0.5,1.1-0.5,1.4,0l2.2,4.4l4.9,0.7c0.3,0,0.5,0.2,0.6,0.5
	c0.1,0.3,0,0.6-0.2,0.8l-3.6,3.4l0.8,4.9c0,0.3-0.1,0.6-0.3,0.7C13.6,16,13.4,16,13.3,16z"/>
</svg>
