<?xml version="1.0" encoding="utf-8"?>
<!-- Generator: Adobe Illustrator 25.4.1, SVG Export Plug-In . SVG Version: 6.00 Build 0)  -->
<svg version="1.1" id="Capa_1" xmlns="http://www.w3.org/2000/svg" xmlns:xlink="http://www.w3.org/1999/xlink" x="0px" y="0px"
	 viewBox="0 0 10 11" style="enable-background:new 0 0 10 11;" xml:space="preserve">
<style type="text/css">
	.st0{fill:#2B73FF;}
</style>
<path class="st0" d="M8.6,1.4H1.4C0.6,1.4,0,2,0,2.7v5.5C0,9,0.6,9.6,1.4,9.6h7.3C9.4,9.6,10,9,10,8.3V2.7C10,2,9.4,1.4,8.6,1.4z
	 M1.4,2.3h7.3C8.8,2.3,9,2.4,9,2.5L5,5.4L1,2.5C1,2.4,1.2,2.3,1.4,2.3z M8.6,8.7H1.4c-0.3,0-0.5-0.2-0.5-0.5V3.6l3.8,2.7
	C4.8,6.4,4.9,6.4,5,6.4s0.2,0,0.3-0.1l3.8-2.7v4.6C9.1,8.5,8.9,8.7,8.6,8.7z"/>
</svg>
