<?xml version="1.0" encoding="utf-8"?>
<!-- Generator: Adobe Illustrator 25.4.1, SVG Export Plug-In . SVG Version: 6.00 Build 0)  -->
<svg version="1.1" id="Capa_1" xmlns="http://www.w3.org/2000/svg" xmlns:xlink="http://www.w3.org/1999/xlink" x="0px" y="0px"
	 viewBox="0 0 10 11" style="enable-background:new 0 0 10 11;" xml:space="preserve">
<style type="text/css">
	.st0{fill:#2B73FF;}
</style>
<g>
	<path class="st0" d="M5,11c-0.1,0-0.2,0-0.3-0.1C4.6,10.8,0.4,8,0.4,4.6C0.4,2.1,2.5,0,5,0c2.5,0,4.6,2,4.6,4.5
		c0,3.4-4.1,6.2-4.3,6.3C5.2,10.9,5.1,11,5,11z M5,1C3,1,1.3,2.6,1.3,4.6c0,2.5,2.8,4.7,3.7,5.4c0.9-0.6,3.7-2.9,3.7-5.4
		C8.7,2.6,7,1,5,1z"/>
	<path class="st0" d="M5,6.4c-1,0-1.8-0.8-1.8-1.8c0-1,0.8-1.8,1.8-1.8c1,0,1.8,0.8,1.8,1.8C6.8,5.6,6,6.4,5,6.4z M5,3.7
		c-0.5,0-0.9,0.4-0.9,0.9S4.5,5.5,5,5.5s0.9-0.4,0.9-0.9S5.5,3.7,5,3.7z"/>
</g>
</svg>
