<?xml version="1.0" encoding="utf-8"?>
<!-- Generator: Adobe Illustrator 25.4.1, SVG Export Plug-In . SVG Version: 6.00 Build 0)  -->
<svg version="1.1" id="Capa_1" xmlns="http://www.w3.org/2000/svg" xmlns:xlink="http://www.w3.org/1999/xlink" x="0px" y="0px"
	 viewBox="0 0 100 100" style="enable-background:new 0 0 100 100;" xml:space="preserve">
<style type="text/css">
	.st0{fill-rule:evenodd;clip-rule:evenodd;fill:#242C36;}
	.st1{fill:#FFFFFF;}
	.st2{fill:#A6D7ED;}
</style>
<g>
	<path class="st0" d="M50,0c27.6,0,50,22.4,50,50c0,27.6-22.4,50-50,50S0,77.6,0,50C0,22.4,22.4,0,50,0z"/>
	<g>
		<g id="XMLID_480_">
			<g>
				<path d="M34,45.7c0,5.8-0.6,10.6-1.7,14c-1.2,3.6-3,5.5-5.2,5.7V51.4l3.9-4.3c0.2-0.2,0.1-0.5,0-0.6c-0.2-0.2-0.5-0.1-0.6,0
					L27,50.1v-8.6l4.1-4.6c0.2-0.2,0.1-0.5,0-0.6c-0.2-0.2-0.5-0.1-0.6,0L27,40.2v-12c0-0.2-0.2-0.4-0.4-0.4c-0.2,0-0.4,0.2-0.4,0.4
					v7.8l-2-2.3c-0.2-0.2-0.4-0.2-0.6,0c-0.2,0.2-0.2,0.4,0,0.6l2.7,3v8.3L23,42.1c-0.2-0.2-0.4-0.2-0.6,0c-0.2,0.2-0.2,0.4,0,0.6
					l3.8,4.3v7.7l-2-2.3c-0.2-0.2-0.4-0.2-0.6,0c-0.2,0.2-0.2,0.4,0,0.6l2.7,3v9.4c-2.3-0.2-4-2.1-5.2-5.7c-1.1-3.4-1.7-8.2-1.7-14
					c0-16,4.4-33.1,7.4-33.1C29.7,12.7,34,29.8,34,45.7z"/>
				<path class="st1" d="M18.3,45.7c0-7.3,0.9-15.7,2.5-22.6c1-4.3,3-11.4,5.8-11.4c2.7,0,4.8,7.1,5.8,11.4
					c1.6,6.9,2.5,15.3,2.5,22.6c0,5.9-0.6,10.8-1.8,14.3c-1.3,4-3.4,6.1-6.1,6.3v20.2c0,0.2-0.2,0.4-0.4,0.4c-0.2,0-0.4-0.2-0.4-0.4
					V66.3c-2.7-0.2-4.7-2.3-6.1-6.3C18.9,56.5,18.3,51.6,18.3,45.7z M34,45.7c0-16-4.4-33.1-7.4-33.1c-3.1,0-7.4,17.1-7.4,33.1
					c0,5.8,0.6,10.6,1.7,14c1.2,3.6,3,5.5,5.2,5.7V56l-2.7-3c-0.2-0.2-0.1-0.5,0-0.6c0.2-0.2,0.5-0.1,0.6,0l2,2.3V47l-3.8-4.3
					c-0.2-0.2-0.1-0.5,0-0.6c0.2-0.2,0.5-0.1,0.6,0l3.2,3.5v-8.3l-2.7-3c-0.2-0.2-0.1-0.5,0-0.6c0.2-0.2,0.5-0.1,0.6,0l2,2.3v-7.8
					c0-0.2,0.2-0.4,0.4-0.4c0.2,0,0.4,0.2,0.4,0.4v12l3.5-3.9c0.2-0.2,0.4-0.2,0.6,0c0.2,0.2,0.2,0.4,0,0.6L27,41.5v8.6l3.2-3.6
					c0.2-0.2,0.4-0.2,0.6,0c0.2,0.2,0.2,0.4,0,0.6L27,51.4v13.9c2.3-0.2,4-2.1,5.2-5.7C33.4,56.3,34,51.5,34,45.7z"/>
			</g>
		</g>
		<g id="XMLID_2_">
			<g>
				<path class="st1" d="M39.6,80.9c0.6,0.7,0.9,1.6,0.9,2.5c0,2.1-1.7,3.8-3.8,3.8H25.5c-2.6,0-4.7-2.1-4.7-4.7
					c0-1.6,0.8-3.1,2.2-4c-0.3-0.5-0.4-1.1-0.4-1.7c0-2.1,1.7-3.8,3.8-3.8c0.8,0,1.6,0.3,2.3,0.8c0.6-1.3,1.9-2.2,3.4-2.2
					c2,0,3.7,1.6,3.8,3.7c0.2,0,0.4,0,0.5,0c2.1,0,3.8,1.7,3.8,3.8C40.2,79.6,40,80.3,39.6,80.9z M39.6,83.3c0-0.8-0.3-1.6-0.9-2.1
					c-0.2-0.2-0.2-0.4,0-0.6c0,0,0,0,0,0c0,0,0,0,0,0c0.4-0.5,0.5-1.1,0.5-1.7c0-1.6-1.3-2.9-2.9-2.9c-0.3,0-0.6,0-0.9,0.1
					c-0.2,0.1-0.5-0.1-0.6-0.3c0-0.1,0-0.2,0-0.2c0,0,0-0.1,0-0.1c0-0.1,0-0.2,0-0.3c0-1.6-1.3-2.9-2.9-2.9c-1.3,0-2.4,0.9-2.8,2.1
					c0,0.2-0.2,0.3-0.3,0.3c-0.2,0.1-0.4,0.1-0.5-0.1c-0.5-0.6-1.3-0.9-2.1-0.9c-1.6,0-2.9,1.3-2.9,2.9c0,0.6,0.2,1.1,0.5,1.6
					c0.1,0.2,0.1,0.5-0.1,0.6c0,0-0.1,0-0.1,0.1c0,0-0.1,0.1-0.1,0.1c-1.2,0.7-2,1.9-2,3.3c0,2.1,1.7,3.8,3.8,3.8h11.3
					C38.4,86.2,39.6,84.9,39.6,83.3z"/>
				<path d="M38.7,81.2c0.6,0.5,0.9,1.3,0.9,2.1c0,1.6-1.3,2.9-2.9,2.9H25.5c-2.1,0-3.8-1.7-3.8-3.8c0-1.4,0.8-2.7,2-3.3
					c0,0,0.1,0,0.1-0.1c0,0,0.1,0,0.1-0.1c0.2-0.1,0.3-0.4,0.1-0.6c-0.3-0.5-0.5-1-0.5-1.6c0-1.6,1.3-2.9,2.9-2.9
					c0.8,0,1.5,0.3,2.1,0.9c0.1,0.2,0.4,0.2,0.5,0.1c0.2,0,0.3-0.2,0.3-0.3c0.3-1.3,1.5-2.1,2.8-2.1c1.6,0,2.9,1.3,2.9,2.9
					c0,0.1,0,0.2,0,0.3c0,0,0,0.1,0,0.1c0,0.1,0,0.2,0,0.2c0.1,0.2,0.3,0.4,0.6,0.3c0.3-0.1,0.6-0.1,0.9-0.1c1.6,0,2.9,1.3,2.9,2.9
					c0,0.6-0.2,1.2-0.5,1.7c0,0,0,0,0,0c0,0,0,0,0,0C38.5,80.8,38.5,81.1,38.7,81.2z"/>
			</g>
		</g>
		<g id="XMLID_485_">
			<g>
				<path d="M52.6,38c1,0,1.7,0.7,1.7,1.5c0,0,0,0.1,0,0.1c0,0,0,0,0,0.1c0,0.1,0,0.1,0,0.2c0.1,0.2,0.3,0.4,0.5,0.3
					c0.2-0.1,0.4-0.1,0.5-0.1c1,0,1.7,0.7,1.7,1.5c0,0.3-0.1,0.6-0.3,0.9c0,0,0,0,0,0.1c-0.2,0.2-0.1,0.5,0.1,0.6
					c0.3,0.3,0.5,0.7,0.5,1.1c0,0.8-0.8,1.5-1.7,1.5h-7.5c-1.3,0-2.4-0.9-2.4-2.1c0-0.8,0.5-1.5,1.2-1.8c0,0,0.1,0,0.1-0.1
					c0,0,0.1,0,0.1-0.1c0.2-0.1,0.2-0.4,0.1-0.6C47.1,41,47,40.7,47,40.4c0-0.8,0.8-1.5,1.7-1.5c0.5,0,1,0.2,1.3,0.5
					c0.1,0.1,0.3,0.2,0.5,0.1c0.1,0,0.3-0.1,0.3-0.3C51.1,38.5,51.8,38,52.6,38z"/>
				<path class="st1" d="M45.8,43.8c0,1.2,1.1,2.1,2.4,2.1h7.5c1,0,1.7-0.7,1.7-1.5c0-0.4-0.2-0.8-0.5-1.1c-0.2-0.2-0.2-0.4-0.1-0.6
					c0,0,0,0,0,0c0.2-0.3,0.3-0.6,0.3-0.9c0-0.8-0.8-1.5-1.7-1.5c-0.2,0-0.4,0-0.5,0.1c-0.2,0.1-0.5-0.1-0.5-0.3c0-0.1,0-0.1,0-0.2
					c0,0,0,0,0-0.1c0,0,0-0.1,0-0.1c0-0.8-0.8-1.5-1.7-1.5c-0.8,0-1.5,0.5-1.7,1.1c0,0.2-0.2,0.3-0.3,0.3c-0.2,0.1-0.4,0.1-0.5-0.1
					c-0.3-0.3-0.8-0.5-1.3-0.5c-1,0-1.7,0.7-1.7,1.5c0,0.3,0.1,0.6,0.3,0.8c0.1,0.2,0.1,0.5-0.1,0.6c0,0-0.1,0-0.1,0.1
					c0,0-0.1,0-0.1,0.1C46.3,42.4,45.8,43.1,45.8,43.8z M46.4,41.4c-0.1-0.3-0.2-0.6-0.2-0.9c0-1.3,1.2-2.4,2.6-2.4
					c0.5,0,1,0.1,1.5,0.4c0.5-0.8,1.3-1.3,2.3-1.3c1.4,0,2.5,1,2.6,2.2c0.1,0,0.1,0,0.2,0c1.5,0,2.6,1.1,2.6,2.4
					c0,0.4-0.1,0.8-0.3,1.2c0.4,0.4,0.6,0.9,0.6,1.5c0,1.3-1.2,2.4-2.6,2.4h-7.5c-1.8,0-3.3-1.3-3.3-3C45,42.8,45.5,41.9,46.4,41.4z
					"/>
			</g>
		</g>
		<g>
			<g id="XMLID_470_">
				<g>
					<path d="M71.8,26.5c0.6,6.6,0,11.8-1.7,13.6c-0.3,0.4-0.7,0.6-1,0.6c-0.1-1.5,0-7.2,0.1-10.9c0-0.2-0.2-0.5-0.4-0.5
						c-0.3,0-0.4,0.2-0.5,0.4c-0.2,7.1-0.1,9.8,0,10.9c-0.3-0.1-0.7-0.3-0.9-0.6c-1.6-1.7-2-6.7-1.4-13.7c0.8-7.9,2.4-9,2.9-9.1
						C69.4,17.5,71,18.5,71.8,26.5z M69.2,27.7V23c0-0.2-0.2-0.4-0.4-0.4c-0.2,0-0.4,0.2-0.4,0.4v4.7c0,0.2,0.2,0.4,0.4,0.4
						C69,28.1,69.2,27.9,69.2,27.7z"/>
					<path class="st1" d="M69.2,23v4.7c0,0.2-0.2,0.4-0.4,0.4c-0.2,0-0.4-0.2-0.4-0.4V23c0-0.2,0.2-0.4,0.4-0.4
						C69,22.6,69.2,22.8,69.2,23z"/>
					<path class="st1" d="M68.2,40.8c-0.1-1.1-0.1-3.8,0-10.9c0-0.2,0.2-0.4,0.4-0.4c0.3,0,0.5,0.2,0.4,0.5
						c-0.1,3.6-0.2,9.4-0.1,10.9c0.4-0.1,0.7-0.3,1-0.6c1.7-1.8,2.3-7.1,1.7-13.6c-0.8-7.9-2.4-9-2.9-9.1c-0.5,0.1-2.2,1.2-2.9,9.1
						c-0.7,7-0.2,12,1.4,13.7C67.6,40.5,67.9,40.7,68.2,40.8z M68.5,16.5c0.1-0.1,0.2-0.1,0.3-0.1c0,0,0.1,0,0.1,0c0,0,0.1,0,0.1,0
						c0.1,0,0.2,0,0.3,0.1c1.6,0.6,2.8,4.1,3.4,9.9c0.7,6.9,0,12.3-1.9,14.3c-0.5,0.5-1,0.8-1.6,0.9v4.5c0,0.2-0.2,0.4-0.4,0.4
						c-0.2,0-0.4-0.2-0.4-0.4v-4.5c-0.6-0.1-1.2-0.4-1.7-0.9c-2.4-2.6-2-10.1-1.6-14.4C65.6,20.6,66.8,17.1,68.5,16.5z"/>
				</g>
			</g>
		</g>
		<g>
			<g id="XMLID_468_">
				<g>
					<rect x="62.9" y="72.4" class="st2" width="7.1" height="13.8"/>
					<rect x="46" y="70" width="3" height="4.4"/>
					<rect x="42.2" y="70" width="3" height="4.4"/>
					<rect x="42.2" y="63.8" width="3" height="4.4"/>
					<rect x="46" y="63.8" width="3" height="4.4"/>
					<polygon class="st2" points="80.5,56.9 77.6,56.9 67.5,46.8 70.4,46.8 					"/>
					<polygon class="st2" points="76.4,56.9 73.6,56.9 63.5,46.8 66.3,46.8 66.9,47.4 					"/>
					<polygon class="st2" points="72.4,56.9 69.6,56.9 59.5,46.8 62.3,46.8 62.9,47.4 					"/>
					<polygon class="st2" points="68.4,56.9 65.6,56.9 55.5,46.8 58.3,46.8 58.9,47.4 					"/>
					<polygon class="st2" points="64.4,56.9 61.6,56.9 51.5,46.8 54.3,46.8 54.9,47.4 					"/>
					<polygon class="st2" points="60.3,56.9 57.2,56.9 47.1,46.8 50.3,46.8 50.9,47.4 					"/>
					<path d="M56.5,57.5v28.7H35.5V57.5L46,47L56.5,57.5z M46,74.9v-5.3c0-0.2-0.2-0.4-0.4-0.4h-3.9c-0.2,0-0.4,0.2-0.4,0.4v5.3
						c0,0.2,0.2,0.4,0.4,0.4h3.9C45.8,75.4,46,75.2,46,74.9z M46,68.7v-5.3c0-0.2-0.2-0.4-0.4-0.4h-3.9c-0.2,0-0.4,0.2-0.4,0.4v5.3
						c0,0.2,0.2,0.4,0.4,0.4h3.9C45.8,69.1,46,68.9,46,68.7z"/>
					<path d="M81.1,57.8v28.5H70.9V72c0-0.2-0.2-0.4-0.4-0.4h-8c-0.2,0-0.4,0.2-0.4,0.4v14.2h-4.6V57.8H81.1z"/>
					<path class="st1" d="M46,74.5h3V70h-3V74.5z M45.1,74.9v-5.3c0-0.2,0.2-0.4,0.4-0.4h3.9c0.2,0,0.4,0.2,0.4,0.4v5.3
						c0,0.2-0.2,0.4-0.4,0.4h-3.9C45.3,75.4,45.1,75.2,45.1,74.9z"/>
					<path class="st1" d="M46,63.8v4.4h3v-4.4H46z M49.9,63.4v5.3c0,0.2-0.2,0.4-0.4,0.4h-3.9c-0.2,0-0.4-0.2-0.4-0.4v-5.3
						c0-0.2,0.2-0.4,0.4-0.4h3.9C49.7,62.9,49.9,63.1,49.9,63.4z"/>
					<path class="st1" d="M59.5,46.8l-0.6,0.6l-0.6-0.6h-2.7l-0.6,0.6l-0.6-0.6h-2.7l-0.6,0.6l-0.6-0.6h-3.2l10.1,10.1l-0.6,0.6
						L46,47l-0.6-0.6l0.3-0.3c0,0,0,0,0,0c0.1-0.1,0.2-0.1,0.3-0.1c0,0,0,0,0,0h24.6c0.1,0,0.2,0,0.3,0.1l10.2,10.2l-0.6,0.6
						L70.4,46.8h-2.9l-0.6,0.6l-0.6-0.6h-2.7l-0.6,0.6l-0.6-0.6H59.5z"/>
					<path class="st1" d="M45.1,70h-3v4.4h3V70z M41.7,69.1h3.9c0.2,0,0.4,0.2,0.4,0.4v5.3c0,0.2-0.2,0.4-0.4,0.4h-3.9
						c-0.2,0-0.4-0.2-0.4-0.4v-5.3C41.3,69.3,41.5,69.1,41.7,69.1z"/>
					<path class="st1" d="M42.2,63.8v4.4h3v-4.4H42.2z M41.7,62.9h3.9c0.2,0,0.4,0.2,0.4,0.4v5.3c0,0.2-0.2,0.4-0.4,0.4h-3.9
						c-0.2,0-0.4-0.2-0.4-0.4v-5.3C41.3,63.1,41.5,62.9,41.7,62.9z"/>
					<path class="st1" d="M70,72.4h-7.1v13.8H70V72.4z M61.6,56.9h2.7l-9.5-9.5l0.6-0.6l10.1,10.1h2.7l-9.5-9.5l0.6-0.6l10.1,10.1
						h2.7l-9.5-9.5l0.6-0.6l10.1,10.1h2.7l-9.5-9.5l0.6-0.6l10.1,10.1h2.9l0.6-0.6l0.8,0.8c0,0,0,0,0.1,0.1c0,0,0,0,0,0
						c0,0,0,0,0,0.1c0,0,0,0,0,0c0,0,0,0,0,0.1c0,0,0,0.1,0,0.1v29.4c0,0.2-0.2,0.4-0.4,0.4H35c-0.2,0-0.4-0.2-0.4-0.4V57.3
						c0-0.1,0-0.2,0.1-0.3l10.7-10.7L46,47L35.5,57.5v28.7h21.1V57.5l0.6-0.6h3.2l-9.5-9.5l0.6-0.6L61.6,56.9z M81.1,57.8H57.4v28.5
						H62V72c0-0.2,0.2-0.4,0.4-0.4h8c0.2,0,0.4,0.2,0.4,0.4v14.2h10.2V57.8z"/>
				</g>
			</g>
		</g>
		<path class="st1" d="M79.3,63.3v5c0,0.2-0.2,0.4-0.4,0.4h-5c-0.2,0-0.4-0.2-0.4-0.4v-5c0-0.2,0.2-0.4,0.4-0.4h5
			C79.1,62.9,79.3,63.1,79.3,63.3z M78.4,67.9v-4.2h-4.2v4.2H78.4z"/>
		<rect x="74.3" y="63.8" width="4.2" height="4.2"/>
		<path class="st1" d="M79.3,72.1v5c0,0.2-0.2,0.4-0.4,0.4h-5c-0.2,0-0.4-0.2-0.4-0.4v-5c0-0.2,0.2-0.4,0.4-0.4h5
			C79.1,71.6,79.3,71.8,79.3,72.1z M78.4,76.7v-4.2h-4.2v4.2H78.4z"/>
		<rect x="74.3" y="72.5" width="4.2" height="4.2"/>
		<path class="st1" d="M67.9,63.3v5c0,0.2-0.2,0.4-0.4,0.4h-5c-0.2,0-0.4-0.2-0.4-0.4v-5c0-0.2,0.2-0.4,0.4-0.4h5
			C67.7,62.9,67.9,63.1,67.9,63.3z M67,67.9v-4.2h-4.2v4.2H67z"/>
		<rect x="62.8" y="63.8" width="4.2" height="4.2"/>
		<path class="st1" d="M46,51.8c1.9,0,3.5,1.6,3.5,3.5c0,1.9-1.6,3.5-3.5,3.5s-3.5-1.6-3.5-3.5C42.5,53.4,44.1,51.8,46,51.8z
			 M48.6,55.3c0-1.4-1.2-2.6-2.6-2.6s-2.6,1.2-2.6,2.6c0,1.4,1.2,2.6,2.6,2.6S48.6,56.7,48.6,55.3z"/>
		<circle cx="46" cy="55.3" r="2.6"/>
	</g>
</g>
</svg>
