<?xml version="1.0" encoding="utf-8"?>
<!-- Generator: Adobe Illustrator 25.4.1, SVG Export Plug-In . SVG Version: 6.00 Build 0)  -->
<svg version="1.1" id="Capa_1" xmlns="http://www.w3.org/2000/svg" xmlns:xlink="http://www.w3.org/1999/xlink" x="0px" y="0px"
	 viewBox="0 0 176 176" style="enable-background:new 0 0 176 176;" xml:space="preserve">
<style type="text/css">
	.st0{fill:#2B73FF;}
	.st1{fill:#FFFFFF;}
</style>
<g>
	<circle class="st0" cx="88" cy="88" r="88"/>
	<path class="st1" d="M142,113.1c1.1,0,2-0.9,2-2V90.7c0,0,0-0.1,0-0.1c0,0,0-0.1,0-0.1c0-0.1,0-0.2,0-0.3c0,0,0-0.1,0-0.1
		c0-0.1-0.1-0.2-0.1-0.3c0,0,0-0.1,0-0.1c0-0.1-0.1-0.2-0.2-0.3c0,0,0,0,0,0l-17.4-22.9c-0.4-0.5-1-0.8-1.6-0.8H95.2V53.7
		c0-0.7-0.4-1.3-0.9-1.7c-0.3-0.2-0.7-0.3-1.1-0.3H34c-0.3,0-0.5,0.1-0.8,0.2c-0.7,0.3-1.2,1-1.2,1.8v36.9c0,0,0,0,0,0v20.4
		c0,1.1,0.9,2,2,2h27.7c0.4,2.8,1.7,5.2,3.6,7.2H34c-1.1,0-2,0.9-2,2s0.9,2,2,2h108c1.1,0,2-0.9,2-2s-0.9-2-2-2h-7
		c1.9-1.9,3.1-4.4,3.6-7.2H142z M78.5,88.7V55.7h2.2v32.9H78.5z M68.7,88.7V55.7h5.8v32.9H68.7z M62.5,88.7V55.7h2.2v32.9H62.5z
		 M53.2,88.7V55.7h5.3v32.9H53.2z M47.1,88.7V55.7h2.2v32.9H47.1z M36,88.7V55.7h7.1v32.9H36z M84.7,55.7h6.6v32.9h-6.6V55.7z
		 M36,92.7h57.2c1.1,0,2-0.9,2-2V69.8h28.4L140,91.4v17.8h-1.5c-1-6.3-6.4-11.2-13-11.2c-6.6,0-12,4.9-13,11.2H87.7
		c-1-6.3-6.4-11.2-13-11.2s-12,4.9-13,11.2H36V92.7z M87.7,113.1h24.9c0.4,2.8,1.7,5.2,3.6,7.2h-32C86,118.4,87.2,115.9,87.7,113.1z
		 M65.5,111.1C65.5,111.1,65.5,111.1,65.5,111.1C65.5,111.1,65.5,111.1,65.5,111.1c0-5.1,4.1-9.2,9.2-9.2c5,0,9.2,4.1,9.2,9.2
		s-4.1,9.2-9.2,9.2C69.6,120.3,65.5,116.2,65.5,111.1z M116.4,111.1C116.4,111.1,116.4,111.1,116.4,111.1
		C116.4,111.1,116.4,111.1,116.4,111.1c0-5.1,4.1-9.2,9.2-9.2c5,0,9.2,4.1,9.2,9.2s-4.1,9.2-9.2,9.2
		C120.5,120.3,116.4,116.2,116.4,111.1z"/>
</g>
</svg>
