<?xml version="1.0" encoding="utf-8"?>
<!-- Generator: Adobe Illustrator 25.4.1, SVG Export Plug-In . SVG Version: 6.00 Build 0)  -->
<svg version="1.1" id="Capa_1" xmlns="http://www.w3.org/2000/svg" xmlns:xlink="http://www.w3.org/1999/xlink" x="0px" y="0px"
	 viewBox="0 0 176 176" style="enable-background:new 0 0 176 176;" xml:space="preserve">
<style type="text/css">
	.st0{fill:#2B73FF;}
	.st1{fill:#FFFFFF;}
</style>
<g>
	<circle class="st0" cx="88" cy="88" r="88"/>
	<path class="st1" d="M133.1,87.8V72c0-0.1,0-0.1,0-0.2v-0.4h0c0,0,0-0.1,0-0.1c-0.4-6.8-6-12.1-12.8-12.1H90V44.1c0-1.1-0.9-2-2-2
		H73c-1.1,0-2,0.9-2,2v15.1h-7.2V47.6c0-0.2,0-0.3-0.1-0.5c-0.2-0.9-1-1.5-1.9-1.5h-5c-7.6,0-13.9,6.2-13.9,13.9h4
		c0-5.4,4.4-9.9,9.9-9.9h3v11.5h0v26.3h-3c-3.9,0-7.3,1.6-9.9,4.1V59.5h-4v42.7h0c0.2,3.4,1.6,6.5,4,8.9c2.6,2.6,6.1,4.1,9.8,4.1
		h55.5v16.7c0,0.2,0,0.3,0.1,0.5c0.2,0.9,1,1.5,1.9,1.5c0,0,0.1,0,0.1,0h4.9c7.6,0,13.9-6.2,13.9-13.9c0,0,0-0.1,0-0.1v-6.7
		c0,0,0,0,0,0V89.5h0L133.1,87.8L133.1,87.8z M75,89.5h2.4c1.1,0,2-0.9,2-2s-0.9-2-2-2H75v-3.9h2.4c1.1,0,2-0.9,2-2s-0.9-2-2-2H75
		v-3.9h2.4c1.1,0,2-0.9,2-2s-0.9-2-2-2H75v-3.9h2.4c1.1,0,2-0.9,2-2c0-1.1-0.9-2-2-2H75V58h2.4c1.1,0,2-0.9,2-2s-0.9-2-2-2H75v-4.3
		h11v47H75V89.5z M49.7,108.3c-1.9-1.9-2.9-4.4-2.9-7c0-5.4,4.4-9.9,9.9-9.9h5c0.9,0,1.6-0.6,1.9-1.4c0.1-0.2,0.1-0.4,0.1-0.6V63.1
		H71v35.5c0,1.1,0.9,2,2,2h15c1.1,0,2-0.9,2-2V63.1h30.3c4.7,0,8.6,3.7,8.9,8.4c0,0.1,0,0.3,0,0.4v39.3h-9.9H56.7
		C54.1,111.2,51.6,110.2,49.7,108.3z M119.3,129.9h-3v-14.7h3h9.9v4.9c0,0,0,0.1,0,0.1C129.1,125.6,124.7,129.9,119.3,129.9z"/>
</g>
</svg>
